<?xml version="1.0" encoding="UTF-8" standalone="no"?>
<!DOCTYPE svg PUBLIC "-//W3C//DTD SVG 1.1//EN" "http://www.w3.org/Graphics/SVG/1.1/DTD/svg11.dtd">
<!-- Generated by Microsoft Visio, SVG Export d2d.svg Spectrum_Sharing -->
<svg xmlns="http://www.w3.org/2000/svg" xmlns:xlink="http://www.w3.org/1999/xlink" xmlns:ev="http://www.w3.org/2001/xml-events"
		xmlns:v="http://schemas.microsoft.com/visio/2003/SVGExtensions/" width="3.67372in" height="3.45998in"
		viewBox="0 0 264.508 249.119" xml:space="preserve" color-interpolation-filters="sRGB" class="st26">
	<v:documentProperties v:langID="1033" v:viewMarkup="false">
		<v:userDefs>
			<v:ud v:nameU="msvConvertTheme"/>
		</v:userDefs>
	</v:documentProperties>

	<style type="text/css">
	<![CDATA[
		.st1 {fill:none;stroke:none;stroke-linecap:round;stroke-linejoin:round;stroke-width:0.75}
		.st2 {fill:#000000;font-family:Times New Roman;font-size:0.833336em}
		.st3 {fill:#0000ff;stroke:#000000;stroke-linecap:round;stroke-linejoin:round;stroke-width:0.75}
		.st4 {stroke:#000000;stroke-linecap:round;stroke-linejoin:round;stroke-width:0.75}
		.st5 {fill:#000000;font-family:Times New Roman;font-size:0.666664em;font-weight:bold}
		.st6 {fill:#0000ff;stroke:#000000;stroke-linecap:round;stroke-linejoin:round;stroke-width:0.5}
		.st7 {stroke:#000000;stroke-linecap:round;stroke-linejoin:round;stroke-width:0.5}
		.st8 {marker-end:url(#mrkr13-55);stroke:#ff0000;stroke-linecap:round;stroke-linejoin:round;stroke-width:0.5}
		.st9 {fill:#ff0000;fill-opacity:1;stroke:#ff0000;stroke-opacity:1;stroke-width:0.25773195876289}
		.st10 {fill:#ff0000;stroke:#000000;stroke-linecap:round;stroke-linejoin:round;stroke-width:0.5}
		.st11 {fill:#000000;font-family:Times New Roman;font-size:0.499992em;font-weight:bold}
		.st12 {marker-end:url(#mrkr13-99);stroke:#0000ff;stroke-linecap:round;stroke-linejoin:round;stroke-width:0.5}
		.st13 {fill:#0000ff;fill-opacity:1;stroke:#0000ff;stroke-opacity:1;stroke-width:0.25773195876289}
		.st14 {fill:#000000;font-family:Times New Roman;font-size:1.00001em;font-weight:bold}
		.st15 {fill:#000000;font-family:Times New Roman;font-size:0.666664em}
		.st16 {marker-end:url(#mrkr13-99);stroke:#0000ff;stroke-dasharray:0.5,1;stroke-linecap:round;stroke-linejoin:round;stroke-width:0.5}
		.st17 {marker-end:url(#mrkr13-55);stroke:#ff0000;stroke-dasharray:0.5,1;stroke-linecap:round;stroke-linejoin:round;stroke-width:0.5}
		.st18 {marker-start:url(#mrkr13-202);stroke:#ff0000;stroke-linecap:round;stroke-linejoin:round;stroke-width:0.5}
		.st19 {marker-start:url(#mrkr13-246);stroke:#0000ff;stroke-linecap:round;stroke-linejoin:round;stroke-width:0.5}
		.st20 {marker-start:url(#mrkr13-246);stroke:#0000ff;stroke-dasharray:0.5,1;stroke-linecap:round;stroke-linejoin:round;stroke-width:0.5}
		.st21 {marker-start:url(#mrkr13-202);stroke:#ff0000;stroke-dasharray:0.5,1;stroke-linecap:round;stroke-linejoin:round;stroke-width:0.5}
		.st22 {fill:none;stroke:#000000;stroke-dasharray:0.5,1;stroke-linecap:round;stroke-linejoin:round;stroke-width:0.5}
		.st23 {fill:#000000;fill-opacity:1;stroke:#000000;stroke-opacity:1;stroke-width:0.25773195876289}
		.st24 {stroke:#000000;stroke-dasharray:0.5,1;stroke-linecap:round;stroke-linejoin:round;stroke-width:0.5}
		.st25 {font-size:1em}
		.st26 {fill:none;fill-rule:evenodd;font-size:12px;overflow:visible;stroke-linecap:square;stroke-miterlimit:3}
	]]>
	</style>

	<defs id="Markers">
		<g id="lend13">
			<path d="M 3 1 L 0 0 L 3 -1 L 3 1 " style="stroke:none"/>
		</g>
		<marker id="mrkr13-55" class="st9" v:arrowType="13" v:arrowSize="0" v:setback="11.64" refX="-11.64" orient="auto"
				markerUnits="strokeWidth" overflow="visible">
			<use xlink:href="#lend13" transform="scale(-3.88,-3.88) "/>
		</marker>
		<marker id="mrkr13-99" class="st13" v:arrowType="13" v:arrowSize="0" v:setback="11.64" refX="-11.64" orient="auto"
				markerUnits="strokeWidth" overflow="visible">
			<use xlink:href="#lend13" transform="scale(-3.88,-3.88) "/>
		</marker>
		<marker id="mrkr13-202" class="st9" v:arrowType="13" v:arrowSize="0" v:setback="10.92" refX="10.92" orient="auto"
				markerUnits="strokeWidth" overflow="visible">
			<use xlink:href="#lend13" transform="scale(3.88) "/>
		</marker>
		<marker id="mrkr13-246" class="st13" v:arrowType="13" v:arrowSize="0" v:setback="10.92" refX="10.92" orient="auto"
				markerUnits="strokeWidth" overflow="visible">
			<use xlink:href="#lend13" transform="scale(3.88) "/>
		</marker>
		<marker id="mrkr13-298" class="st23" v:arrowType="13" v:arrowSize="0" v:setback="11.64" refX="-11.64" orient="auto"
				markerUnits="strokeWidth" overflow="visible">
			<use xlink:href="#lend13" transform="scale(-3.88,-3.88) "/>
		</marker>
	</defs>
	<g v:mID="5" v:index="1" v:groupContext="foregroundPage">
		<title>Spectrum_Sharing</title>
		<v:pageProperties v:drawingScale="1" v:pageScale="1" v:drawingUnits="0" v:shadowOffsetX="9" v:shadowOffsetY="-9"/>
		<v:layer v:name="Connector" v:index="0"/>
		<g id="shape54-1" v:mID="54" v:groupContext="shape" transform="translate(38.8215,-195.869)">
			<title>Rectangle.103</title>
			<desc>BS</desc>
			<v:textBlock v:margins="rect(4,4,4,4)"/>
			<v:textRect cx="14.5267" cy="240.681" width="29.06" height="16.875"/>
			<rect x="0" y="232.244" width="29.0535" height="16.875" class="st1"/>
			<text x="8.41" y="243.68" class="st2" v:langID="1033"><v:paragraph v:horizAlign="1"/><v:tabList/>BS</text>		</g>
		<g id="group207-4" transform="translate(64.5424,-194.744)" v:mID="207" v:groupContext="group">
			<title>Sheet.207</title>
			<g id="group55-5" v:mID="55" v:groupContext="group">
				<title>Sheet.55</title>
				<g id="shape56-6" v:mID="56" v:groupContext="shape">
					<title>Rectangle.73</title>
					<v:userDefs>
						<v:ud v:nameU="visVersion" v:val="VT0(15):26"/>
					</v:userDefs>
					<rect x="0" y="240.391" width="20.1653" height="8.72772" class="st3"/>
				</g>
				<g id="group57-8" transform="translate(14.955,-8.94975)" v:mID="57" v:groupContext="group">
					<title>Sheet.57</title>
					<g id="shape58-9" v:mID="58" v:groupContext="shape" transform="translate(251.059,244.531) rotate(90)">
						<title>Sheet.58</title>
						<path d="M0 249.12 L4.59 249.12" class="st4"/>
					</g>
					<g id="shape59-12" v:mID="59" v:groupContext="shape" transform="translate(3.87939,490.312) rotate(180)">
						<title>Triangle</title>
						<v:userDefs>
							<v:ud v:nameU="visVersion" v:val="VT0(15):26"/>
						</v:userDefs>
						<path d="M3.88 249.12 L1.94 245.78 L0 249.12 L3.88 249.12 Z" class="st3"/>
					</g>
				</g>
				<g id="group60-14" transform="translate(1.2922,-8.94975)" v:mID="60" v:groupContext="group">
					<title>Sheet.60</title>
					<g id="shape61-15" v:mID="61" v:groupContext="shape" transform="translate(251.059,244.531) rotate(90)">
						<title>Sheet.61</title>
						<path d="M0 249.12 L4.59 249.12" class="st4"/>
					</g>
					<g id="shape62-18" v:mID="62" v:groupContext="shape" transform="translate(3.87939,490.312) rotate(180)">
						<title>Triangle</title>
						<v:userDefs>
							<v:ud v:nameU="visVersion" v:val="VT0(15):26"/>
						</v:userDefs>
						<path d="M3.88 249.12 L1.94 245.78 L0 249.12 L3.88 249.12 Z" class="st3"/>
					</g>
				</g>
			</g>
			<g id="shape117-20" v:mID="117" v:groupContext="shape" transform="translate(-0.0423633,-11.8125)">
				<title>Rectangle.117</title>
				<desc>...</desc>
				<v:textBlock v:margins="rect(4,4,4,4)"/>
				<v:textRect cx="10.0826" cy="244.619" width="20.17" height="9"/>
				<rect x="0" y="240.119" width="20.1653" height="9" class="st1"/>
				<text x="7.08" y="247.02" class="st5" v:langID="1033"><v:paragraph v:horizAlign="1"/><v:tabList/>...</text>			</g>
		</g>
		<g id="group285-23" transform="translate(31.875,-147.385)" v:mID="285" v:groupContext="group">
			<title>Sheet.285</title>
			<g id="shape276-24" v:mID="276" v:groupContext="shape">
				<title>Rectangle.73</title>
				<v:userDefs>
					<v:ud v:nameU="visVersion" v:val="VT0(15):26"/>
				</v:userDefs>
				<rect x="0" y="243.244" width="9" height="5.87483" class="st6"/>
			</g>
			<g id="group280-26" transform="translate(2.56031,-6.02429)" v:mID="280" v:groupContext="group">
				<title>Sheet.280</title>
				<g id="shape281-27" v:mID="281" v:groupContext="shape" transform="translate(251.059,246.03) rotate(90)">
					<title>Sheet.281</title>
					<path d="M0 249.12 L3.09 249.12" class="st7"/>
				</g>
				<g id="shape282-30" v:mID="282" v:groupContext="shape" transform="translate(3.87939,492.903) rotate(180)">
					<title>Triangle</title>
					<v:userDefs>
						<v:ud v:nameU="visVersion" v:val="VT0(15):26"/>
					</v:userDefs>
					<path d="M3.88 249.12 L1.94 246.87 L0 249.12 L3.88 249.12 Z" class="st6"/>
				</g>
			</g>
		</g>
		<g id="group286-32" transform="translate(63.375,-147.385)" v:mID="286" v:groupContext="group">
			<title>Sheet.286</title>
			<g id="shape287-33" v:mID="287" v:groupContext="shape">
				<title>Rectangle.73</title>
				<v:userDefs>
					<v:ud v:nameU="visVersion" v:val="VT0(15):26"/>
				</v:userDefs>
				<rect x="0" y="243.244" width="9" height="5.87483" class="st6"/>
			</g>
			<g id="group288-35" transform="translate(2.56031,-6.02429)" v:mID="288" v:groupContext="group">
				<title>Sheet.288</title>
				<g id="shape289-36" v:mID="289" v:groupContext="shape" transform="translate(251.059,246.03) rotate(90)">
					<title>Sheet.289</title>
					<path d="M0 249.12 L3.09 249.12" class="st7"/>
				</g>
				<g id="shape290-39" v:mID="290" v:groupContext="shape" transform="translate(3.87939,492.903) rotate(180)">
					<title>Triangle</title>
					<v:userDefs>
						<v:ud v:nameU="visVersion" v:val="VT0(15):26"/>
					</v:userDefs>
					<path d="M3.88 249.12 L1.94 246.87 L0 249.12 L3.88 249.12 Z" class="st6"/>
				</g>
			</g>
		</g>
		<g id="group291-41" transform="translate(111.542,-147.385)" v:mID="291" v:groupContext="group">
			<title>Sheet.291</title>
			<g id="shape292-42" v:mID="292" v:groupContext="shape">
				<title>Rectangle.73</title>
				<v:userDefs>
					<v:ud v:nameU="visVersion" v:val="VT0(15):26"/>
				</v:userDefs>
				<rect x="0" y="243.244" width="9" height="5.87483" class="st6"/>
			</g>
			<g id="group293-44" transform="translate(2.56031,-6.02429)" v:mID="293" v:groupContext="group">
				<title>Sheet.293</title>
				<g id="shape294-45" v:mID="294" v:groupContext="shape" transform="translate(251.059,246.03) rotate(90)">
					<title>Sheet.294</title>
					<path d="M0 249.12 L3.09 249.12" class="st7"/>
				</g>
				<g id="shape295-48" v:mID="295" v:groupContext="shape" transform="translate(3.87939,492.903) rotate(180)">
					<title>Triangle</title>
					<v:userDefs>
						<v:ud v:nameU="visVersion" v:val="VT0(15):26"/>
					</v:userDefs>
					<path d="M3.88 249.12 L1.94 246.87 L0 249.12 L3.88 249.12 Z" class="st6"/>
				</g>
			</g>
		</g>
		<g id="shape296-50" v:mID="296" v:groupContext="shape" transform="translate(160.853,-203.064)">
			<title>Sheet.296</title>
			<path d="M0 249.12 L15.16 249.12" class="st8"/>
		</g>
		<g id="group319-56" transform="translate(144.094,-192.377)" v:mID="319" v:groupContext="group">
			<title>Sheet.319</title>
			<g id="group298-57" transform="translate(0.37648,2.84217E-14)" v:mID="298" v:groupContext="group">
				<title>Sheet.298</title>
				<g id="shape299-58" v:mID="299" v:groupContext="shape">
					<title>Rectangle.73</title>
					<v:userDefs>
						<v:ud v:nameU="visVersion" v:val="VT0(15):26"/>
					</v:userDefs>
					<rect x="0" y="243.47" width="13.0507" height="5.64847" class="st10"/>
				</g>
				<g id="group300-60" transform="translate(9.67868,-5.79216)" v:mID="300" v:groupContext="group">
					<title>Sheet.300</title>
					<g id="shape301-61" v:mID="301" v:groupContext="shape" transform="translate(250.374,246.149) rotate(90)">
						<title>Sheet.301</title>
						<path d="M0 249.12 L2.97 249.12" class="st7"/>
					</g>
					<g id="shape302-64" v:mID="302" v:groupContext="shape" transform="translate(2.51069,493.109) rotate(180)">
						<title>Triangle</title>
						<v:userDefs>
							<v:ud v:nameU="visVersion" v:val="VT0(15):26"/>
						</v:userDefs>
						<path d="M2.51 249.12 L1.26 246.96 L0 249.12 L2.51 249.12 Z" class="st10"/>
					</g>
				</g>
				<g id="group303-66" transform="translate(0.836296,-5.79216)" v:mID="303" v:groupContext="group">
					<title>Sheet.303</title>
					<g id="shape304-67" v:mID="304" v:groupContext="shape" transform="translate(250.374,246.149) rotate(90)">
						<title>Sheet.304</title>
						<path d="M0 249.12 L2.97 249.12" class="st7"/>
					</g>
					<g id="shape305-70" v:mID="305" v:groupContext="shape" transform="translate(2.51069,493.109) rotate(180)">
						<title>Triangle</title>
						<v:userDefs>
							<v:ud v:nameU="visVersion" v:val="VT0(15):26"/>
						</v:userDefs>
						<path d="M2.51 249.12 L1.26 246.96 L0 249.12 L2.51 249.12 Z" class="st10"/>
					</g>
				</g>
			</g>
			<g id="shape318-72" v:mID="318" v:groupContext="shape" transform="translate(0,-8.61072)">
				<title>Rectangle.117</title>
				<desc>...</desc>
				<v:textBlock v:margins="rect(4,4,4,4)"/>
				<v:textRect cx="6.90183" cy="247.964" width="13.81" height="2.31056"/>
				<rect x="0" y="246.808" width="13.8037" height="2.31056" class="st1"/>
				<text x="4.65" y="249.76" class="st11" v:langID="1033"><v:paragraph v:horizAlign="1"/><v:tabList/>...</text>			</g>
		</g>
		<g id="group320-75" transform="translate(184.174,-192.377)" v:mID="320" v:groupContext="group">
			<title>Sheet.320</title>
			<g id="group321-76" transform="translate(0.37648,2.84217E-14)" v:mID="321" v:groupContext="group">
				<title>Sheet.321</title>
				<g id="shape322-77" v:mID="322" v:groupContext="shape">
					<title>Rectangle.73</title>
					<v:userDefs>
						<v:ud v:nameU="visVersion" v:val="VT0(15):26"/>
					</v:userDefs>
					<rect x="0" y="243.47" width="13.0507" height="5.64847" class="st10"/>
				</g>
				<g id="group323-79" transform="translate(9.67868,-5.79216)" v:mID="323" v:groupContext="group">
					<title>Sheet.323</title>
					<g id="shape324-80" v:mID="324" v:groupContext="shape" transform="translate(250.374,246.149) rotate(90)">
						<title>Sheet.324</title>
						<path d="M0 249.12 L2.97 249.12" class="st7"/>
					</g>
					<g id="shape325-83" v:mID="325" v:groupContext="shape" transform="translate(2.51069,493.109) rotate(180)">
						<title>Triangle</title>
						<v:userDefs>
							<v:ud v:nameU="visVersion" v:val="VT0(15):26"/>
						</v:userDefs>
						<path d="M2.51 249.12 L1.26 246.96 L0 249.12 L2.51 249.12 Z" class="st10"/>
					</g>
				</g>
				<g id="group326-85" transform="translate(0.836296,-5.79216)" v:mID="326" v:groupContext="group">
					<title>Sheet.326</title>
					<g id="shape327-86" v:mID="327" v:groupContext="shape" transform="translate(250.374,246.149) rotate(90)">
						<title>Sheet.327</title>
						<path d="M0 249.12 L2.97 249.12" class="st7"/>
					</g>
					<g id="shape328-89" v:mID="328" v:groupContext="shape" transform="translate(2.51069,493.109) rotate(180)">
						<title>Triangle</title>
						<v:userDefs>
							<v:ud v:nameU="visVersion" v:val="VT0(15):26"/>
						</v:userDefs>
						<path d="M2.51 249.12 L1.26 246.96 L0 249.12 L2.51 249.12 Z" class="st10"/>
					</g>
				</g>
			</g>
			<g id="shape329-91" v:mID="329" v:groupContext="shape" transform="translate(0,-8.61072)">
				<title>Rectangle.117</title>
				<desc>...</desc>
				<v:textBlock v:margins="rect(4,4,4,4)"/>
				<v:textRect cx="6.90183" cy="247.964" width="13.81" height="2.31056"/>
				<rect x="0" y="246.808" width="13.8037" height="2.31056" class="st1"/>
				<text x="4.65" y="249.76" class="st11" v:langID="1033"><v:paragraph v:horizAlign="1"/><v:tabList/>...</text>			</g>
		</g>
		<g id="shape330-94" v:mID="330" v:groupContext="shape" transform="translate(-153.593,-72.261) rotate(-50.0921)">
			<title>Sheet.330</title>
			<path d="M0 249.12 L34.51 249.12" class="st12"/>
		</g>
		<g id="shape332-100" v:mID="332" v:groupContext="shape" transform="translate(-180.505,67.8256) rotate(-85.5856)">
			<title>Sheet.332</title>
			<path d="M0 249.12 L24.67 249.12" class="st12"/>
		</g>
		<g id="shape333-105" v:mID="333" v:groupContext="shape" transform="translate(-72.8035,253.208) rotate(-131.812)">
			<title>Sheet.333</title>
			<path d="M0 249.12 L35.1 249.12" class="st12"/>
		</g>
		<g id="shape334-110" v:mID="334" v:groupContext="shape" transform="translate(80.25,-151.885)">
			<title>Rectangle.334</title>
			<desc>...</desc>
			<v:textBlock v:margins="rect(4,4,4,4)"/>
			<v:textRect cx="11.8125" cy="243.439" width="23.63" height="11.359"/>
			<rect x="0" y="237.76" width="23.625" height="11.359" class="st1"/>
			<text x="7.31" y="247.04" class="st14" v:langID="1033"><v:paragraph v:horizAlign="1"/><v:tabList/>...</text>		</g>
		<g id="shape337-113" v:mID="337" v:groupContext="shape" transform="translate(18.375,-136.244)">
			<title>Rectangle.337</title>
			<desc>C-UE 1</desc>
			<v:textBlock v:margins="rect(4,4,4,4)"/>
			<v:textRect cx="18" cy="243.775" width="36" height="10.6875"/>
			<rect x="0" y="238.431" width="36" height="10.6875" class="st1"/>
			<text x="5.67" y="246.18" class="st15" v:langID="1033"><v:paragraph v:horizAlign="1"/><v:tabList/>C-UE 1</text>		</g>
		<g id="shape338-116" v:mID="338" v:groupContext="shape" transform="translate(49.875,-136.244)">
			<title>Rectangle.338</title>
			<desc>C-UE 2</desc>
			<v:textBlock v:margins="rect(4,4,4,4)"/>
			<v:textRect cx="18" cy="243.775" width="36" height="10.6875"/>
			<rect x="0" y="238.431" width="36" height="10.6875" class="st1"/>
			<text x="5.67" y="246.18" class="st15" v:langID="1033"><v:paragraph v:horizAlign="1"/><v:tabList/>C-UE 2</text>		</g>
		<g id="shape339-119" v:mID="339" v:groupContext="shape" transform="translate(98.0417,-136.244)">
			<title>Rectangle.339</title>
			<desc>C-UE N</desc>
			<v:textBlock v:margins="rect(4,4,4,4)"/>
			<v:textRect cx="18" cy="243.775" width="36" height="10.6875"/>
			<rect x="0" y="238.431" width="36" height="10.6875" class="st1"/>
			<text x="4.78" y="246.18" class="st15" v:langID="1033"><v:paragraph v:horizAlign="1"/><v:tabList/>C-UE N</text>		</g>
		<g id="shape340-122" v:mID="340" v:groupContext="shape" transform="translate(132.844,-205.381)">
			<title>Rectangle.340</title>
			<desc>D-UE 1</desc>
			<v:textBlock v:margins="rect(4,4,4,4)"/>
			<v:textRect cx="18" cy="243.188" width="36" height="11.8627"/>
			<rect x="0" y="237.256" width="36" height="11.8627" class="st1"/>
			<text x="5.45" y="245.59" class="st15" v:langID="1033"><v:paragraph v:horizAlign="1"/><v:tabList/>D-UE 1</text>		</g>
		<g id="shape342-125" v:mID="342" v:groupContext="shape" transform="translate(173.906,-205.381)">
			<title>Rectangle.342</title>
			<desc>D-UE 2</desc>
			<v:textBlock v:margins="rect(4,4,4,4)"/>
			<v:textRect cx="18" cy="243.188" width="36" height="11.8627"/>
			<rect x="0" y="237.256" width="36" height="11.8627" class="st1"/>
			<text x="5.45" y="245.59" class="st15" v:langID="1033"><v:paragraph v:horizAlign="1"/><v:tabList/>D-UE 2</text>		</g>
		<g id="shape343-128" v:mID="343" v:groupContext="shape" transform="translate(30.1288,-145.034) rotate(-20.9849)">
			<title>Sheet.343</title>
			<path d="M0 249.12 L60.15 249.12" class="st16"/>
		</g>
		<g id="shape344-133" v:mID="344" v:groupContext="shape" transform="translate(10.1857,-151.485) rotate(-15.5275)">
			<title>Sheet.344</title>
			<path d="M0 249.12 L100.8 249.12" class="st16"/>
		</g>
		<g id="shape345-138" v:mID="345" v:groupContext="shape" transform="translate(-15.6225,-153.45) rotate(-13.7387)">
			<title>Sheet.345</title>
			<path d="M0 249.12 L133.31 249.12" class="st16"/>
		</g>
		<g id="shape346-143" v:mID="346" v:groupContext="shape" transform="translate(118.82,294.517) rotate(-175.152)">
			<title>Sheet.346</title>
			<path d="M0 249.12 L41.6 249.12" class="st17"/>
		</g>
		<g id="shape348-148" v:mID="348" v:groupContext="shape" transform="translate(38.8215,-78)">
			<title>Rectangle.348</title>
			<desc>BS</desc>
			<v:textBlock v:margins="rect(4,4,4,4)"/>
			<v:textRect cx="14.5267" cy="240.681" width="29.06" height="16.875"/>
			<rect x="0" y="232.244" width="29.0535" height="16.875" class="st1"/>
			<text x="8.41" y="243.68" class="st2" v:langID="1033"><v:paragraph v:horizAlign="1"/><v:tabList/>BS</text>		</g>
		<g id="group349-151" transform="translate(64.5424,-76.875)" v:mID="349" v:groupContext="group">
			<title>Sheet.349</title>
			<g id="group350-152" v:mID="350" v:groupContext="group">
				<title>Sheet.350</title>
				<g id="shape351-153" v:mID="351" v:groupContext="shape">
					<title>Rectangle.73</title>
					<v:userDefs>
						<v:ud v:nameU="visVersion" v:val="VT0(15):26"/>
					</v:userDefs>
					<rect x="0" y="240.391" width="20.1653" height="8.72772" class="st3"/>
				</g>
				<g id="group352-155" transform="translate(14.955,-8.94975)" v:mID="352" v:groupContext="group">
					<title>Sheet.352</title>
					<g id="shape353-156" v:mID="353" v:groupContext="shape" transform="translate(251.059,244.531) rotate(90)">
						<title>Sheet.353</title>
						<path d="M0 249.12 L4.59 249.12" class="st4"/>
					</g>
					<g id="shape354-159" v:mID="354" v:groupContext="shape" transform="translate(3.87939,490.312) rotate(180)">
						<title>Triangle</title>
						<v:userDefs>
							<v:ud v:nameU="visVersion" v:val="VT0(15):26"/>
						</v:userDefs>
						<path d="M3.88 249.12 L1.94 245.78 L0 249.12 L3.88 249.12 Z" class="st3"/>
					</g>
				</g>
				<g id="group355-161" transform="translate(1.2922,-8.94975)" v:mID="355" v:groupContext="group">
					<title>Sheet.355</title>
					<g id="shape356-162" v:mID="356" v:groupContext="shape" transform="translate(251.059,244.531) rotate(90)">
						<title>Sheet.356</title>
						<path d="M0 249.12 L4.59 249.12" class="st4"/>
					</g>
					<g id="shape357-165" v:mID="357" v:groupContext="shape" transform="translate(3.87939,490.312) rotate(180)">
						<title>Triangle</title>
						<v:userDefs>
							<v:ud v:nameU="visVersion" v:val="VT0(15):26"/>
						</v:userDefs>
						<path d="M3.88 249.12 L1.94 245.78 L0 249.12 L3.88 249.12 Z" class="st3"/>
					</g>
				</g>
			</g>
			<g id="shape358-167" v:mID="358" v:groupContext="shape" transform="translate(-0.0423633,-11.8125)">
				<title>Rectangle.117</title>
				<desc>...</desc>
				<v:textBlock v:margins="rect(4,4,4,4)"/>
				<v:textRect cx="10.0826" cy="244.619" width="20.17" height="9"/>
				<rect x="0" y="240.119" width="20.1653" height="9" class="st1"/>
				<text x="7.08" y="247.02" class="st5" v:langID="1033"><v:paragraph v:horizAlign="1"/><v:tabList/>...</text>			</g>
		</g>
		<g id="group359-170" transform="translate(31.875,-29.516)" v:mID="359" v:groupContext="group">
			<title>Sheet.359</title>
			<g id="shape360-171" v:mID="360" v:groupContext="shape">
				<title>Rectangle.73</title>
				<v:userDefs>
					<v:ud v:nameU="visVersion" v:val="VT0(15):26"/>
				</v:userDefs>
				<rect x="0" y="243.244" width="9" height="5.87483" class="st6"/>
			</g>
			<g id="group361-173" transform="translate(2.56031,-6.02429)" v:mID="361" v:groupContext="group">
				<title>Sheet.361</title>
				<g id="shape362-174" v:mID="362" v:groupContext="shape" transform="translate(251.059,246.03) rotate(90)">
					<title>Sheet.362</title>
					<path d="M0 249.12 L3.09 249.12" class="st7"/>
				</g>
				<g id="shape363-177" v:mID="363" v:groupContext="shape" transform="translate(3.87939,492.903) rotate(180)">
					<title>Triangle</title>
					<v:userDefs>
						<v:ud v:nameU="visVersion" v:val="VT0(15):26"/>
					</v:userDefs>
					<path d="M3.88 249.12 L1.94 246.87 L0 249.12 L3.88 249.12 Z" class="st6"/>
				</g>
			</g>
		</g>
		<g id="group364-179" transform="translate(63.375,-29.516)" v:mID="364" v:groupContext="group">
			<title>Sheet.364</title>
			<g id="shape365-180" v:mID="365" v:groupContext="shape">
				<title>Rectangle.73</title>
				<v:userDefs>
					<v:ud v:nameU="visVersion" v:val="VT0(15):26"/>
				</v:userDefs>
				<rect x="0" y="243.244" width="9" height="5.87483" class="st6"/>
			</g>
			<g id="group366-182" transform="translate(2.56031,-6.02429)" v:mID="366" v:groupContext="group">
				<title>Sheet.366</title>
				<g id="shape367-183" v:mID="367" v:groupContext="shape" transform="translate(251.059,246.03) rotate(90)">
					<title>Sheet.367</title>
					<path d="M0 249.12 L3.09 249.12" class="st7"/>
				</g>
				<g id="shape368-186" v:mID="368" v:groupContext="shape" transform="translate(3.87939,492.903) rotate(180)">
					<title>Triangle</title>
					<v:userDefs>
						<v:ud v:nameU="visVersion" v:val="VT0(15):26"/>
					</v:userDefs>
					<path d="M3.88 249.12 L1.94 246.87 L0 249.12 L3.88 249.12 Z" class="st6"/>
				</g>
			</g>
		</g>
		<g id="group369-188" transform="translate(111.542,-29.516)" v:mID="369" v:groupContext="group">
			<title>Sheet.369</title>
			<g id="shape370-189" v:mID="370" v:groupContext="shape">
				<title>Rectangle.73</title>
				<v:userDefs>
					<v:ud v:nameU="visVersion" v:val="VT0(15):26"/>
				</v:userDefs>
				<rect x="0" y="243.244" width="9" height="5.87483" class="st6"/>
			</g>
			<g id="group371-191" transform="translate(2.56031,-6.02429)" v:mID="371" v:groupContext="group">
				<title>Sheet.371</title>
				<g id="shape372-192" v:mID="372" v:groupContext="shape" transform="translate(251.059,246.03) rotate(90)">
					<title>Sheet.372</title>
					<path d="M0 249.12 L3.09 249.12" class="st7"/>
				</g>
				<g id="shape373-195" v:mID="373" v:groupContext="shape" transform="translate(3.87939,492.903) rotate(180)">
					<title>Triangle</title>
					<v:userDefs>
						<v:ud v:nameU="visVersion" v:val="VT0(15):26"/>
					</v:userDefs>
					<path d="M3.88 249.12 L1.94 246.87 L0 249.12 L3.88 249.12 Z" class="st6"/>
				</g>
			</g>
		</g>
		<g id="shape374-197" v:mID="374" v:groupContext="shape" transform="translate(160.853,-85.1956)">
			<title>Sheet.374</title>
			<path d="M5.46 249.12 L5.82 249.12 L20.98 249.12" class="st18"/>
		</g>
		<g id="group375-203" transform="translate(144.094,-74.5081)" v:mID="375" v:groupContext="group">
			<title>Sheet.375</title>
			<g id="group376-204" transform="translate(0.37648,2.84217E-14)" v:mID="376" v:groupContext="group">
				<title>Sheet.376</title>
				<g id="shape377-205" v:mID="377" v:groupContext="shape">
					<title>Rectangle.73</title>
					<v:userDefs>
						<v:ud v:nameU="visVersion" v:val="VT0(15):26"/>
					</v:userDefs>
					<rect x="0" y="243.47" width="13.0507" height="5.64847" class="st10"/>
				</g>
				<g id="group378-207" transform="translate(9.67868,-5.79216)" v:mID="378" v:groupContext="group">
					<title>Sheet.378</title>
					<g id="shape379-208" v:mID="379" v:groupContext="shape" transform="translate(250.374,246.149) rotate(90)">
						<title>Sheet.379</title>
						<path d="M0 249.12 L2.97 249.12" class="st7"/>
					</g>
					<g id="shape380-211" v:mID="380" v:groupContext="shape" transform="translate(2.51069,493.109) rotate(180)">
						<title>Triangle</title>
						<v:userDefs>
							<v:ud v:nameU="visVersion" v:val="VT0(15):26"/>
						</v:userDefs>
						<path d="M2.51 249.12 L1.26 246.96 L0 249.12 L2.51 249.12 Z" class="st10"/>
					</g>
				</g>
				<g id="group381-213" transform="translate(0.836296,-5.79216)" v:mID="381" v:groupContext="group">
					<title>Sheet.381</title>
					<g id="shape382-214" v:mID="382" v:groupContext="shape" transform="translate(250.374,246.149) rotate(90)">
						<title>Sheet.382</title>
						<path d="M0 249.12 L2.97 249.12" class="st7"/>
					</g>
					<g id="shape383-217" v:mID="383" v:groupContext="shape" transform="translate(2.51069,493.109) rotate(180)">
						<title>Triangle</title>
						<v:userDefs>
							<v:ud v:nameU="visVersion" v:val="VT0(15):26"/>
						</v:userDefs>
						<path d="M2.51 249.12 L1.26 246.96 L0 249.12 L2.51 249.12 Z" class="st10"/>
					</g>
				</g>
			</g>
			<g id="shape384-219" v:mID="384" v:groupContext="shape" transform="translate(0,-8.61072)">
				<title>Rectangle.117</title>
				<desc>...</desc>
				<v:textBlock v:margins="rect(4,4,4,4)"/>
				<v:textRect cx="6.90183" cy="247.964" width="13.81" height="2.31056"/>
				<rect x="0" y="246.808" width="13.8037" height="2.31056" class="st1"/>
				<text x="4.65" y="249.76" class="st11" v:langID="1033"><v:paragraph v:horizAlign="1"/><v:tabList/>...</text>			</g>
		</g>
		<g id="group385-222" transform="translate(184.174,-74.5081)" v:mID="385" v:groupContext="group">
			<title>Sheet.385</title>
			<g id="group386-223" transform="translate(0.37648,2.84217E-14)" v:mID="386" v:groupContext="group">
				<title>Sheet.386</title>
				<g id="shape387-224" v:mID="387" v:groupContext="shape">
					<title>Rectangle.73</title>
					<v:userDefs>
						<v:ud v:nameU="visVersion" v:val="VT0(15):26"/>
					</v:userDefs>
					<rect x="0" y="243.47" width="13.0507" height="5.64847" class="st10"/>
				</g>
				<g id="group388-226" transform="translate(9.67868,-5.79216)" v:mID="388" v:groupContext="group">
					<title>Sheet.388</title>
					<g id="shape389-227" v:mID="389" v:groupContext="shape" transform="translate(250.374,246.149) rotate(90)">
						<title>Sheet.389</title>
						<path d="M0 249.12 L2.97 249.12" class="st7"/>
					</g>
					<g id="shape390-230" v:mID="390" v:groupContext="shape" transform="translate(2.51069,493.109) rotate(180)">
						<title>Triangle</title>
						<v:userDefs>
							<v:ud v:nameU="visVersion" v:val="VT0(15):26"/>
						</v:userDefs>
						<path d="M2.51 249.12 L1.26 246.96 L0 249.12 L2.51 249.12 Z" class="st10"/>
					</g>
				</g>
				<g id="group391-232" transform="translate(0.836296,-5.79216)" v:mID="391" v:groupContext="group">
					<title>Sheet.391</title>
					<g id="shape392-233" v:mID="392" v:groupContext="shape" transform="translate(250.374,246.149) rotate(90)">
						<title>Sheet.392</title>
						<path d="M0 249.12 L2.97 249.12" class="st7"/>
					</g>
					<g id="shape393-236" v:mID="393" v:groupContext="shape" transform="translate(2.51069,493.109) rotate(180)">
						<title>Triangle</title>
						<v:userDefs>
							<v:ud v:nameU="visVersion" v:val="VT0(15):26"/>
						</v:userDefs>
						<path d="M2.51 249.12 L1.26 246.96 L0 249.12 L2.51 249.12 Z" class="st10"/>
					</g>
				</g>
			</g>
			<g id="shape394-238" v:mID="394" v:groupContext="shape" transform="translate(0,-8.61072)">
				<title>Rectangle.117</title>
				<desc>...</desc>
				<v:textBlock v:margins="rect(4,4,4,4)"/>
				<v:textRect cx="6.90183" cy="247.964" width="13.81" height="2.31056"/>
				<rect x="0" y="246.808" width="13.8037" height="2.31056" class="st1"/>
				<text x="4.65" y="249.76" class="st11" v:langID="1033"><v:paragraph v:horizAlign="1"/><v:tabList/>...</text>			</g>
		</g>
		<g id="shape395-241" v:mID="395" v:groupContext="shape" transform="translate(-153.593,45.6079) rotate(-50.0921)">
			<title>Sheet.395</title>
			<path d="M5.46 249.12 L5.82 249.12 L40.33 249.12" class="st19"/>
		</g>
		<g id="shape396-247" v:mID="396" v:groupContext="shape" transform="translate(-180.505,185.694) rotate(-85.5856)">
			<title>Sheet.396</title>
			<path d="M5.46 249.12 L5.82 249.12 L30.49 249.12" class="st19"/>
		</g>
		<g id="shape397-252" v:mID="397" v:groupContext="shape" transform="translate(-72.8035,371.077) rotate(-131.812)">
			<title>Sheet.397</title>
			<path d="M5.46 249.12 L5.82 249.12 L40.92 249.12" class="st19"/>
		</g>
		<g id="shape398-257" v:mID="398" v:groupContext="shape" transform="translate(80.25,-34.016)">
			<title>Rectangle.398</title>
			<desc>...</desc>
			<v:textBlock v:margins="rect(4,4,4,4)"/>
			<v:textRect cx="11.8125" cy="243.439" width="23.63" height="11.359"/>
			<rect x="0" y="237.76" width="23.625" height="11.359" class="st1"/>
			<text x="7.31" y="247.04" class="st14" v:langID="1033"><v:paragraph v:horizAlign="1"/><v:tabList/>...</text>		</g>
		<g id="shape399-260" v:mID="399" v:groupContext="shape" transform="translate(18.375,-18.375)">
			<title>Rectangle.399</title>
			<desc>C-UE 1</desc>
			<v:textBlock v:margins="rect(4,4,4,4)"/>
			<v:textRect cx="18" cy="243.775" width="36" height="10.6875"/>
			<rect x="0" y="238.431" width="36" height="10.6875" class="st1"/>
			<text x="5.67" y="246.18" class="st15" v:langID="1033"><v:paragraph v:horizAlign="1"/><v:tabList/>C-UE 1</text>		</g>
		<g id="shape400-263" v:mID="400" v:groupContext="shape" transform="translate(49.875,-18.375)">
			<title>Rectangle.400</title>
			<desc>C-UE 2</desc>
			<v:textBlock v:margins="rect(4,4,4,4)"/>
			<v:textRect cx="18" cy="243.775" width="36" height="10.6875"/>
			<rect x="0" y="238.431" width="36" height="10.6875" class="st1"/>
			<text x="5.67" y="246.18" class="st15" v:langID="1033"><v:paragraph v:horizAlign="1"/><v:tabList/>C-UE 2</text>		</g>
		<g id="shape401-266" v:mID="401" v:groupContext="shape" transform="translate(98.0417,-18.375)">
			<title>Rectangle.401</title>
			<desc>C-UE N</desc>
			<v:textBlock v:margins="rect(4,4,4,4)"/>
			<v:textRect cx="18" cy="243.775" width="36" height="10.6875"/>
			<rect x="0" y="238.431" width="36" height="10.6875" class="st1"/>
			<text x="4.78" y="246.18" class="st15" v:langID="1033"><v:paragraph v:horizAlign="1"/><v:tabList/>C-UE N</text>		</g>
		<g id="shape402-269" v:mID="402" v:groupContext="shape" transform="translate(132.844,-86.1312)">
			<title>Rectangle.402</title>
			<desc>D-UE 1</desc>
			<v:textBlock v:margins="rect(4,4,4,4)"/>
			<v:textRect cx="18" cy="243.188" width="36" height="11.8627"/>
			<rect x="0" y="237.256" width="36" height="11.8627" class="st1"/>
			<text x="5.45" y="245.59" class="st15" v:langID="1033"><v:paragraph v:horizAlign="1"/><v:tabList/>D-UE 1</text>		</g>
		<g id="shape403-272" v:mID="403" v:groupContext="shape" transform="translate(173.906,-86.1312)">
			<title>Rectangle.403</title>
			<desc>D-UE 2</desc>
			<v:textBlock v:margins="rect(4,4,4,4)"/>
			<v:textRect cx="18" cy="243.188" width="36" height="11.8627"/>
			<rect x="0" y="237.256" width="36" height="11.8627" class="st1"/>
			<text x="5.45" y="245.59" class="st15" v:langID="1033"><v:paragraph v:horizAlign="1"/><v:tabList/>D-UE 2</text>		</g>
		<g id="shape404-275" v:mID="404" v:groupContext="shape" transform="translate(25.7238,-25.4269) rotate(-22.074)">
			<title>Sheet.404</title>
			<path d="M5.46 249.12 L5.82 249.12 L65.86 249.12" class="st20"/>
		</g>
		<g id="shape405-280" v:mID="405" v:groupContext="shape" transform="translate(7.18374,-32.7617) rotate(-16.2453)">
			<title>Sheet.405</title>
			<path d="M5.46 249.12 L5.82 249.12 L106.05 249.12" class="st20"/>
		</g>
		<g id="shape406-285" v:mID="406" v:groupContext="shape" transform="translate(-16.8081,-35.2879) rotate(-14.0195)">
			<title>Sheet.406</title>
			<path d="M5.46 249.12 L5.82 249.12 L138.72 249.12" class="st20"/>
		</g>
		<g id="shape407-290" v:mID="407" v:groupContext="shape" transform="translate(118.82,412.385) rotate(-175.152)">
			<title>Sheet.407</title>
			<path d="M5.46 249.12 L5.82 249.12 L47.42 249.12" class="st21"/>
		</g>
		<g id="shape409-295" v:mID="409" v:groupContext="shape" transform="translate(362.39,35.25) rotate(90)">
			<title>Ellipse.17</title>
			<v:userDefs>
				<v:ud v:nameU="visVersion" v:val="VT0(15):26"/>
			</v:userDefs>
			<path d="M0 245.66 A7.44118 3.45818 0 0 1 14.88 245.66 A7.44118 3.45818 0 1 1 -0 245.66 Z" class="st22"/>
		</g>
		<g id="shape410-299" v:mID="410" v:groupContext="shape" transform="translate(81.375,-218.881)">
			<title>Rectangle.410</title>
			<desc>Cancelled by BS</desc>
			<v:textBlock v:margins="rect(4,4,4,4)"/>
			<v:textRect cx="33.1875" cy="243.188" width="66.38" height="11.8627"/>
			<rect x="0" y="237.256" width="66.375" height="11.8627" class="st1"/>
			<text x="6.3" y="245.59" class="st15" v:langID="1033"><v:paragraph v:horizAlign="1"/><v:tabList/>Cancelled by BS</text>		</g>
		<g id="shape412-302" v:mID="412" v:groupContext="shape" transform="translate(-131.671,35.25) rotate(-90)">
			<title>Sheet.412</title>
			<path d="M0 248.4 C0.12 247.81 0.39 247.54 0.66 247.26 C1.48 246.45 2.38 245.59 3.11 245.88 C3.79 246.14 4.31 247.4 4.92
						 248.25 C5.56 249.16 6.31 249.61 7.11 248.4" class="st24"/>
		</g>
		<g id="shape413-305" v:mID="413" v:groupContext="shape" transform="translate(382.163,-2.41587) rotate(75)">
			<title>Ellipse.413</title>
			<v:userDefs>
				<v:ud v:nameU="visVersion" v:val="VT0(15):26"/>
			</v:userDefs>
			<path d="M0 245.66 A10.1448 3.45818 0 0 1 20.29 245.66 A10.1448 3.45818 0 1 1 0 245.66 Z" class="st22"/>
		</g>
		<g id="shape414-308" v:mID="414" v:groupContext="shape" transform="translate(28.6907,297.779) rotate(-148.054)">
			<title>Sheet.414</title>
			<path d="M0 248.4 C0.2 247.81 0.64 247.54 1.1 247.26 C2.45 246.45 3.95 245.59 5.15 245.88 C6.27 246.14 7.13 247.4 8.14
						 248.25 C9.22 249.16 10.46 249.61 11.79 248.4" class="st24"/>
		</g>
		<g id="shape415-311" v:mID="415" v:groupContext="shape" transform="translate(156.763,-155.881)">
			<title>Rectangle.415</title>
			<desc>Cancelled by D-UE 2</desc>
			<v:textBlock v:margins="rect(4,4,4,4)"/>
			<v:textRect cx="41.0559" cy="243.188" width="82.12" height="11.8627"/>
			<rect x="0" y="237.256" width="82.1117" height="11.8627" class="st1"/>
			<text x="6.51" y="245.59" class="st15" v:langID="1033"><v:paragraph v:horizAlign="1"/><v:tabList/>Cancelled by D-UE 2</text>		</g>
		<g id="shape416-314" v:mID="416" v:groupContext="shape" transform="translate(377.663,114.584) rotate(75)">
			<title>Ellipse.416</title>
			<v:userDefs>
				<v:ud v:nameU="visVersion" v:val="VT0(15):26"/>
			</v:userDefs>
			<path d="M0 245.66 A10.1448 3.45818 0 0 1 20.29 245.66 A10.1448 3.45818 0 1 1 0 245.66 Z" class="st22"/>
		</g>
		<g id="shape417-317" v:mID="417" v:groupContext="shape" transform="translate(24.1907,414.779) rotate(-148.054)">
			<title>Sheet.417</title>
			<path d="M0 248.4 C0.2 247.81 0.64 247.54 1.1 247.26 C2.45 246.45 3.95 245.59 5.15 245.88 C6.27 246.14 7.13 247.4 8.14
						 248.25 C9.22 249.16 10.46 249.61 11.79 248.4" class="st24"/>
		</g>
		<g id="shape418-320" v:mID="418" v:groupContext="shape" transform="translate(147.708,-39.4938)">
			<title>Rectangle.418</title>
			<desc>Pre-cancelled by D-UE 2 via beamforming</desc>
			<v:textBlock v:margins="rect(4,4,4,4)"/>
			<v:textRect cx="49.2121" cy="243.188" width="98.43" height="11.8627"/>
			<rect x="0" y="237.256" width="98.4242" height="11.8627" class="st1"/>
			<text x="8.9" y="240.79" class="st15" v:langID="1033"><v:paragraph v:horizAlign="1"/><v:tabList/>Pre-cancelled by D-UE 2 <tspan
						x="21.78" dy="1.2em" class="st25">via beamforming</tspan></text>		</g>
		<g id="shape419-324" v:mID="419" v:groupContext="shape" transform="translate(353.39,154.243) rotate(90)">
			<title>Ellipse.419</title>
			<v:userDefs>
				<v:ud v:nameU="visVersion" v:val="VT0(15):26"/>
			</v:userDefs>
			<path d="M0 245.66 A7.44118 3.45818 0 0 1 14.88 245.66 A7.44118 3.45818 0 1 1 -0 245.66 Z" class="st22"/>
		</g>
		<g id="shape420-327" v:mID="420" v:groupContext="shape" transform="translate(67.8883,-105.869)">
			<title>Rectangle.420</title>
			<desc>Pre-cancelled by BS via beamforming</desc>
			<v:textBlock v:margins="rect(4,4,4,4)"/>
			<v:textRect cx="41.0559" cy="243.188" width="82.12" height="11.8627"/>
			<rect x="0" y="237.256" width="82.1117" height="11.8627" class="st1"/>
			<text x="8.4" y="240.79" class="st15" v:langID="1033"><v:paragraph v:horizAlign="1"/><v:tabList/>Pre-cancelled by BS <tspan
						x="13.62" dy="1.2em" class="st25">via beamforming</tspan></text>		</g>
		<g id="shape421-331" v:mID="421" v:groupContext="shape" transform="translate(-128.074,76.1415) rotate(-71.6744)">
			<title>Sheet.421</title>
			<path d="M0 248.4 C0.16 247.81 0.5 247.54 0.86 247.26 C1.91 246.45 3.09 245.59 4.03 245.88 C4.9 246.14 5.57 247.4 6.36
						 248.25 C7.2 249.16 8.17 249.61 9.21 248.4" class="st24"/>
		</g>
	</g>
</svg>
