<?xml version="1.0" encoding="UTF-8" standalone="no"?>
<!DOCTYPE svg PUBLIC "-//W3C//DTD SVG 1.1//EN" "http://www.w3.org/Graphics/SVG/1.1/DTD/svg11.dtd">
<!-- Generated by Microsoft Visio, SVG Export underlay.svg Page-1 -->
<svg xmlns="http://www.w3.org/2000/svg" xmlns:xlink="http://www.w3.org/1999/xlink" xmlns:ev="http://www.w3.org/2001/xml-events"
		xmlns:v="http://schemas.microsoft.com/visio/2003/SVGExtensions/" width="6.42565in" height="3.2674in"
		viewBox="0 0 462.647 235.253" xml:space="preserve" color-interpolation-filters="sRGB" class="st22">
	<v:documentProperties v:langID="1033" v:viewMarkup="false">
		<v:userDefs>
			<v:ud v:nameU="msvNoAutoConnect" v:val="VT0(1):26"/>
		</v:userDefs>
	</v:documentProperties>

	<style type="text/css">
	<![CDATA[
		.st1 {fill:none;stroke:none;stroke-linecap:round;stroke-linejoin:round;stroke-width:0.75}
		.st2 {fill:#000000;font-family:Times New Roman;font-size:0.916672em}
		.st3 {marker-end:url(#mrkr13-9);stroke:#0000ff;stroke-linecap:round;stroke-linejoin:round;stroke-width:1}
		.st4 {fill:#0000ff;fill-opacity:1;stroke:#0000ff;stroke-opacity:1;stroke-width:0.40983606557377}
		.st5 {fill:#0000ff;stroke:#000000;stroke-linecap:round;stroke-linejoin:round;stroke-width:0.75}
		.st6 {stroke:#000000;stroke-linecap:round;stroke-linejoin:round;stroke-width:0.75}
		.st7 {fill:#000000;font-family:Times New Roman;font-size:0.916672em;font-weight:bold}
		.st8 {marker-end:url(#mrkr13-64);stroke:#ff0000;stroke-linecap:round;stroke-linejoin:round;stroke-width:1}
		.st9 {fill:#ff0000;fill-opacity:1;stroke:#ff0000;stroke-opacity:1;stroke-width:0.40983606557377}
		.st10 {fill:#ff0000;stroke:#000000;stroke-linecap:round;stroke-linejoin:round;stroke-width:0.75}
		.st11 {fill:#000000;font-family:Times New Roman;font-size:1.16666em}
		.st12 {marker-end:url(#mrkr13-242);stroke:#000000;stroke-linecap:round;stroke-linejoin:round;stroke-width:0.75}
		.st13 {fill:#000000;fill-opacity:1;stroke:#000000;stroke-opacity:1;stroke-width:0.34246575342466}
		.st14 {fill:#ffffff;marker-end:url(#mrkr13-9);stroke:#0000ff;stroke-linecap:round;stroke-linejoin:round;stroke-width:1}
		.st15 {marker-start:url(#mrkr13-259);stroke:#0000ff;stroke-linecap:round;stroke-linejoin:round;stroke-width:1}
		.st16 {fill:none;stroke:none;stroke-linecap:round;stroke-linejoin:round;stroke-width:0.72}
		.st17 {fill:#000000;font-family:Times New Roman;font-size:1.00001em}
		.st18 {fill:#0000ff;font-family:Times New Roman;font-size:1.5em}
		.st19 {fill:#ffffff;stroke:#ff0000;stroke-dasharray:1,2;stroke-linecap:round;stroke-linejoin:round;stroke-width:1}
		.st20 {marker-start:url(#mrkr13-372);stroke:#ff0000;stroke-linecap:round;stroke-linejoin:round;stroke-width:1}
		.st21 {fill:#ff0000;font-family:Times New Roman;font-size:1.5em}
		.st22 {fill:none;fill-rule:evenodd;font-size:12px;overflow:visible;stroke-linecap:square;stroke-miterlimit:3}
	]]>
	</style>

	<defs id="Markers">
		<g id="lend13">
			<path d="M 3 1 L 0 0 L 3 -1 L 3 1 " style="stroke:none"/>
		</g>
		<marker id="mrkr13-9" class="st4" v:arrowType="13" v:arrowSize="0" v:setback="7.32" refX="-7.32" orient="auto"
				markerUnits="strokeWidth" overflow="visible">
			<use xlink:href="#lend13" transform="scale(-2.44,-2.44) "/>
		</marker>
		<marker id="mrkr13-64" class="st9" v:arrowType="13" v:arrowSize="0" v:setback="7.32" refX="-7.32" orient="auto"
				markerUnits="strokeWidth" overflow="visible">
			<use xlink:href="#lend13" transform="scale(-2.44,-2.44) "/>
		</marker>
		<marker id="mrkr13-242" class="st13" v:arrowType="13" v:arrowSize="0" v:setback="8.76" refX="-8.76" orient="auto"
				markerUnits="strokeWidth" overflow="visible">
			<use xlink:href="#lend13" transform="scale(-2.92,-2.92) "/>
		</marker>
		<marker id="mrkr13-259" class="st4" v:arrowType="13" v:arrowSize="0" v:setback="6.96" refX="6.96" orient="auto"
				markerUnits="strokeWidth" overflow="visible">
			<use xlink:href="#lend13" transform="scale(2.44) "/>
		</marker>
		<marker id="mrkr13-372" class="st9" v:arrowType="13" v:arrowSize="0" v:setback="6.96" refX="6.96" orient="auto"
				markerUnits="strokeWidth" overflow="visible">
			<use xlink:href="#lend13" transform="scale(2.44) "/>
		</marker>
	</defs>
	<g v:mID="0" v:index="1" v:groupContext="foregroundPage">
		<title>Page-1</title>
		<v:pageProperties v:drawingScale="1" v:pageScale="1" v:drawingUnits="19" v:shadowOffsetX="9" v:shadowOffsetY="-9"/>
		<g id="shape112-1" v:mID="112" v:groupContext="shape" transform="translate(248.256,-89.5684)">
			<title>Rectangle.274</title>
			<desc>PU 1</desc>
			<v:textBlock v:margins="rect(4,4,4,4)"/>
			<v:textRect cx="16.6355" cy="226.125" width="33.28" height="18.2547"/>
			<rect x="0" y="216.998" width="33.271" height="18.2547" class="st1"/>
			<text x="5.48" y="229.43" class="st2" v:langID="2052"><v:paragraph v:horizAlign="1"/><v:tabList/>PU 1</text>		</g>
		<g id="shape113-4" v:mID="113" v:groupContext="shape" transform="translate(308.179,-106.625)">
			<title>Sheet.113</title>
			<path d="M0 235.25 L51.83 235.25" class="st3"/>
		</g>
		<g id="group114-10" transform="translate(279.455,-88.3514)" v:mID="114" v:groupContext="group">
			<title>Sheet.114</title>
			<g id="group115-11" v:mID="115" v:groupContext="group">
				<title>Sheet.115</title>
				<g id="shape116-12" v:mID="116" v:groupContext="shape">
					<title>Rectangle.73</title>
					<v:userDefs>
						<v:ud v:nameU="visVersion" v:val="VT0(15):26"/>
					</v:userDefs>
					<rect x="0" y="225.811" width="21.814" height="9.44131" class="st5"/>
				</g>
				<g id="group117-14" transform="translate(16.1777,-9.6815)" v:mID="117" v:groupContext="group">
					<title>Sheet.117</title>
					<g id="shape118-15" v:mID="118" v:groupContext="shape" transform="translate(237.351,230.289) rotate(90)">
						<title>Sheet.118</title>
						<path d="M0 235.25 L4.96 235.25" class="st6"/>
					</g>
					<g id="shape119-18" v:mID="119" v:groupContext="shape" transform="translate(4.19657,461.932) rotate(180)">
						<title>Triangle</title>
						<v:userDefs>
							<v:ud v:nameU="visVersion" v:val="VT0(15):26"/>
						</v:userDefs>
						<path d="M4.2 235.25 L2.1 231.64 L0 235.25 L4.2 235.25 Z" class="st5"/>
					</g>
				</g>
				<g id="group120-20" transform="translate(1.39785,-9.6815)" v:mID="120" v:groupContext="group">
					<title>Sheet.120</title>
					<g id="shape121-21" v:mID="121" v:groupContext="shape" transform="translate(237.351,230.289) rotate(90)">
						<title>Sheet.121</title>
						<path d="M0 235.25 L4.96 235.25" class="st6"/>
					</g>
					<g id="shape122-24" v:mID="122" v:groupContext="shape" transform="translate(4.19657,461.932) rotate(180)">
						<title>Triangle</title>
						<v:userDefs>
							<v:ud v:nameU="visVersion" v:val="VT0(15):26"/>
						</v:userDefs>
						<path d="M4.2 235.25 L2.1 231.64 L0 235.25 L4.2 235.25 Z" class="st5"/>
					</g>
				</g>
			</g>
			<g id="shape123-26" v:mID="123" v:groupContext="shape" transform="translate(0,-10.9528)">
				<title>Rectangle.117</title>
				<desc>...</desc>
				<v:textBlock v:margins="rect(4,4,4,4)"/>
				<v:textRect cx="10.907" cy="230.385" width="21.82" height="9.73585"/>
				<rect x="0" y="225.517" width="21.814" height="9.73585" class="st1"/>
				<text x="6.78" y="233.68" class="st7" v:langID="1033"><v:paragraph v:horizAlign="1"/><v:tabList/>...</text>			</g>
		</g>
		<g id="group124-29" transform="translate(370.727,-88.3514)" v:mID="124" v:groupContext="group">
			<title>Sheet.124</title>
			<g id="group125-30" v:mID="125" v:groupContext="group">
				<title>Sheet.125</title>
				<g id="shape126-31" v:mID="126" v:groupContext="shape">
					<title>Rectangle.73</title>
					<v:userDefs>
						<v:ud v:nameU="visVersion" v:val="VT0(15):26"/>
					</v:userDefs>
					<rect x="0" y="225.811" width="21.814" height="9.44131" class="st5"/>
				</g>
				<g id="group127-33" transform="translate(16.1777,-9.6815)" v:mID="127" v:groupContext="group">
					<title>Sheet.127</title>
					<g id="shape128-34" v:mID="128" v:groupContext="shape" transform="translate(237.351,230.289) rotate(90)">
						<title>Sheet.128</title>
						<path d="M0 235.25 L4.96 235.25" class="st6"/>
					</g>
					<g id="shape129-37" v:mID="129" v:groupContext="shape" transform="translate(4.19657,461.932) rotate(180)">
						<title>Triangle</title>
						<v:userDefs>
							<v:ud v:nameU="visVersion" v:val="VT0(15):26"/>
						</v:userDefs>
						<path d="M4.2 235.25 L2.1 231.64 L0 235.25 L4.2 235.25 Z" class="st5"/>
					</g>
				</g>
				<g id="group130-39" transform="translate(1.39785,-9.6815)" v:mID="130" v:groupContext="group">
					<title>Sheet.130</title>
					<g id="shape131-40" v:mID="131" v:groupContext="shape" transform="translate(237.351,230.289) rotate(90)">
						<title>Sheet.131</title>
						<path d="M0 235.25 L4.96 235.25" class="st6"/>
					</g>
					<g id="shape132-43" v:mID="132" v:groupContext="shape" transform="translate(4.19657,461.932) rotate(180)">
						<title>Triangle</title>
						<v:userDefs>
							<v:ud v:nameU="visVersion" v:val="VT0(15):26"/>
						</v:userDefs>
						<path d="M4.2 235.25 L2.1 231.64 L0 235.25 L4.2 235.25 Z" class="st5"/>
					</g>
				</g>
			</g>
			<g id="shape133-45" v:mID="133" v:groupContext="shape" transform="translate(0,-10.9528)">
				<title>Rectangle.117</title>
				<desc>...</desc>
				<v:textBlock v:margins="rect(4,4,4,4)"/>
				<v:textRect cx="10.907" cy="230.385" width="21.82" height="9.73585"/>
				<rect x="0" y="225.517" width="21.814" height="9.73585" class="st1"/>
				<text x="6.78" y="233.68" class="st7" v:langID="1033"><v:paragraph v:horizAlign="1"/><v:tabList/>...</text>			</g>
		</g>
		<g id="shape134-48" v:mID="134" v:groupContext="shape" transform="translate(391.124,-89.5684)">
			<title>Rectangle.296</title>
			<desc>PU 2</desc>
			<v:textBlock v:margins="rect(4,4,4,4)"/>
			<v:textRect cx="16.969" cy="226.125" width="33.94" height="18.2547"/>
			<rect x="0" y="216.998" width="33.938" height="18.2547" class="st1"/>
			<text x="5.81" y="229.43" class="st2" v:langID="2052"><v:paragraph v:horizAlign="1"/><v:tabList/>PU 2</text>		</g>
		<g id="shape135-51" v:mID="135" v:groupContext="shape" transform="translate(456.777,-53.7526) rotate(39.1722)">
			<title>Sheet.135</title>
			<path d="M0 235.25 L66.65 235.25" class="st3"/>
		</g>
		<g id="shape136-56" v:mID="136" v:groupContext="shape" transform="translate(248.256,-40.8892)">
			<title>Rectangle.298</title>
			<desc>SU 1</desc>
			<v:textBlock v:margins="rect(4,4,4,4)"/>
			<v:textRect cx="16.6355" cy="226.125" width="33.28" height="18.2547"/>
			<rect x="0" y="216.998" width="33.271" height="18.2547" class="st1"/>
			<text x="5.48" y="229.43" class="st2" v:langID="2052"><v:paragraph v:horizAlign="1"/><v:tabList/>SU 1</text>		</g>
		<g id="shape137-59" v:mID="137" v:groupContext="shape" transform="translate(306.962,-55.5123)">
			<title>Sheet.137</title>
			<path d="M0 235.25 L51.83 235.25" class="st8"/>
		</g>
		<g id="group138-65" transform="translate(279.455,-39.6722)" v:mID="138" v:groupContext="group">
			<title>Sheet.138</title>
			<g id="group139-66" v:mID="139" v:groupContext="group">
				<title>Sheet.139</title>
				<g id="shape140-67" v:mID="140" v:groupContext="shape">
					<title>Rectangle.73</title>
					<v:userDefs>
						<v:ud v:nameU="visVersion" v:val="VT0(15):26"/>
					</v:userDefs>
					<rect x="0" y="225.811" width="21.814" height="9.44131" class="st10"/>
				</g>
				<g id="group141-69" transform="translate(16.1777,-9.6815)" v:mID="141" v:groupContext="group">
					<title>Sheet.141</title>
					<g id="shape142-70" v:mID="142" v:groupContext="shape" transform="translate(237.351,230.289) rotate(90)">
						<title>Sheet.142</title>
						<path d="M0 235.25 L4.96 235.25" class="st6"/>
					</g>
					<g id="shape143-73" v:mID="143" v:groupContext="shape" transform="translate(4.19657,461.932) rotate(180)">
						<title>Triangle</title>
						<v:userDefs>
							<v:ud v:nameU="visVersion" v:val="VT0(15):26"/>
						</v:userDefs>
						<path d="M4.2 235.25 L2.1 231.64 L0 235.25 L4.2 235.25 Z" class="st10"/>
					</g>
				</g>
				<g id="group144-75" transform="translate(1.39785,-9.6815)" v:mID="144" v:groupContext="group">
					<title>Sheet.144</title>
					<g id="shape145-76" v:mID="145" v:groupContext="shape" transform="translate(237.351,230.289) rotate(90)">
						<title>Sheet.145</title>
						<path d="M0 235.25 L4.96 235.25" class="st6"/>
					</g>
					<g id="shape146-79" v:mID="146" v:groupContext="shape" transform="translate(4.19657,461.932) rotate(180)">
						<title>Triangle</title>
						<v:userDefs>
							<v:ud v:nameU="visVersion" v:val="VT0(15):26"/>
						</v:userDefs>
						<path d="M4.2 235.25 L2.1 231.64 L0 235.25 L4.2 235.25 Z" class="st10"/>
					</g>
				</g>
			</g>
			<g id="shape147-81" v:mID="147" v:groupContext="shape" transform="translate(0,-10.9528)">
				<title>Rectangle.117</title>
				<desc>...</desc>
				<v:textBlock v:margins="rect(4,4,4,4)"/>
				<v:textRect cx="10.907" cy="230.385" width="21.82" height="9.73585"/>
				<rect x="0" y="225.517" width="21.814" height="9.73585" class="st1"/>
				<text x="6.78" y="233.68" class="st7" v:langID="1033"><v:paragraph v:horizAlign="1"/><v:tabList/>...</text>			</g>
		</g>
		<g id="group148-84" transform="translate(370.727,-39.6722)" v:mID="148" v:groupContext="group">
			<title>Sheet.148</title>
			<g id="group149-85" v:mID="149" v:groupContext="group">
				<title>Sheet.149</title>
				<g id="shape150-86" v:mID="150" v:groupContext="shape">
					<title>Rectangle.73</title>
					<v:userDefs>
						<v:ud v:nameU="visVersion" v:val="VT0(15):26"/>
					</v:userDefs>
					<rect x="0" y="225.811" width="21.814" height="9.44131" class="st10"/>
				</g>
				<g id="group151-88" transform="translate(16.1777,-9.6815)" v:mID="151" v:groupContext="group">
					<title>Sheet.151</title>
					<g id="shape152-89" v:mID="152" v:groupContext="shape" transform="translate(237.351,230.289) rotate(90)">
						<title>Sheet.152</title>
						<path d="M0 235.25 L4.96 235.25" class="st6"/>
					</g>
					<g id="shape153-92" v:mID="153" v:groupContext="shape" transform="translate(4.19657,461.932) rotate(180)">
						<title>Triangle</title>
						<v:userDefs>
							<v:ud v:nameU="visVersion" v:val="VT0(15):26"/>
						</v:userDefs>
						<path d="M4.2 235.25 L2.1 231.64 L0 235.25 L4.2 235.25 Z" class="st10"/>
					</g>
				</g>
				<g id="group154-94" transform="translate(1.39785,-9.6815)" v:mID="154" v:groupContext="group">
					<title>Sheet.154</title>
					<g id="shape155-95" v:mID="155" v:groupContext="shape" transform="translate(237.351,230.289) rotate(90)">
						<title>Sheet.155</title>
						<path d="M0 235.25 L4.96 235.25" class="st6"/>
					</g>
					<g id="shape156-98" v:mID="156" v:groupContext="shape" transform="translate(4.19657,461.932) rotate(180)">
						<title>Triangle</title>
						<v:userDefs>
							<v:ud v:nameU="visVersion" v:val="VT0(15):26"/>
						</v:userDefs>
						<path d="M4.2 235.25 L2.1 231.64 L0 235.25 L4.2 235.25 Z" class="st10"/>
					</g>
				</g>
			</g>
			<g id="shape157-100" v:mID="157" v:groupContext="shape" transform="translate(0,-10.9528)">
				<title>Rectangle.117</title>
				<desc>...</desc>
				<v:textBlock v:margins="rect(4,4,4,4)"/>
				<v:textRect cx="10.907" cy="230.385" width="21.82" height="9.73585"/>
				<rect x="0" y="225.517" width="21.814" height="9.73585" class="st1"/>
				<text x="6.78" y="233.68" class="st7" v:langID="1033"><v:paragraph v:horizAlign="1"/><v:tabList/>...</text>			</g>
		</g>
		<g id="shape158-103" v:mID="158" v:groupContext="shape" transform="translate(166.142,-8.70978) rotate(-36.7691)">
			<title>Sheet.158</title>
			<path d="M0 235.25 L67.87 235.25" class="st8"/>
		</g>
		<g id="shape159-108" v:mID="159" v:groupContext="shape" transform="translate(389.816,-40.8892)">
			<title>Rectangle.321</title>
			<desc>SU 2</desc>
			<v:textBlock v:margins="rect(4,4,4,4)"/>
			<v:textRect cx="18.277" cy="226.125" width="36.56" height="18.2547"/>
			<rect x="0" y="216.998" width="36.554" height="18.2547" class="st1"/>
			<text x="7.12" y="229.43" class="st2" v:langID="2052"><v:paragraph v:horizAlign="1"/><v:tabList/>SU 2</text>		</g>
		<g id="shape160-111" v:mID="160" v:groupContext="shape" transform="translate(272.085,-109.04)">
			<title>Rectangle.328</title>
			<desc>Tx</desc>
			<v:textBlock v:margins="rect(4,4,4,4)"/>
			<v:textRect cx="18.277" cy="226.125" width="36.56" height="18.2547"/>
			<rect x="0" y="216.998" width="36.554" height="18.2547" class="st1"/>
			<text x="12.17" y="229.43" class="st2" v:langID="1033"><v:paragraph v:horizAlign="1"/><v:tabList/>Tx</text>		</g>
		<g id="shape161-114" v:mID="161" v:groupContext="shape" transform="translate(272.085,-18.375)">
			<title>Rectangle.329</title>
			<desc>Tx</desc>
			<v:textBlock v:margins="rect(4,4,4,4)"/>
			<v:textRect cx="18.277" cy="226.125" width="36.56" height="18.2547"/>
			<rect x="0" y="216.998" width="36.554" height="18.2547" class="st1"/>
			<text x="12.17" y="229.43" class="st2" v:langID="1033"><v:paragraph v:horizAlign="1"/><v:tabList/>Tx</text>		</g>
		<g id="shape162-117" v:mID="162" v:groupContext="shape" transform="translate(363.357,-109.04)">
			<title>Rectangle.330</title>
			<desc>Rx</desc>
			<v:textBlock v:margins="rect(4,4,4,4)"/>
			<v:textRect cx="18.277" cy="226.125" width="36.56" height="18.2547"/>
			<rect x="0" y="216.998" width="36.554" height="18.2547" class="st1"/>
			<text x="11.86" y="229.43" class="st2" v:langID="1033"><v:paragraph v:horizAlign="1"/><v:tabList/>Rx</text>		</g>
		<g id="shape163-120" v:mID="163" v:groupContext="shape" transform="translate(363.357,-18.375)">
			<title>Rectangle.331</title>
			<desc>Rx</desc>
			<v:textBlock v:margins="rect(4,4,4,4)"/>
			<v:textRect cx="18.277" cy="226.125" width="36.56" height="18.2547"/>
			<rect x="0" y="216.998" width="36.554" height="18.2547" class="st1"/>
			<text x="11.86" y="229.43" class="st2" v:langID="1033"><v:paragraph v:horizAlign="1"/><v:tabList/>Rx</text>		</g>
		<g id="shape164-123" v:mID="164" v:groupContext="shape" transform="translate(39.37,-95.3491)">
			<title>Rectangle.164</title>
			<desc>PU 1</desc>
			<v:textBlock v:margins="rect(4,4,4,4)"/>
			<v:textRect cx="16.6355" cy="226.125" width="33.28" height="18.2547"/>
			<rect x="0" y="216.998" width="33.271" height="18.2547" class="st1"/>
			<text x="5.48" y="229.43" class="st2" v:langID="2052"><v:paragraph v:horizAlign="1"/><v:tabList/>PU 1</text>		</g>
		<g id="group165-126" transform="translate(70.5686,-94.1321)" v:mID="165" v:groupContext="group">
			<title>Sheet.165</title>
			<g id="group166-127" v:mID="166" v:groupContext="group">
				<title>Sheet.166</title>
				<g id="shape167-128" v:mID="167" v:groupContext="shape">
					<title>Rectangle.73</title>
					<v:userDefs>
						<v:ud v:nameU="visVersion" v:val="VT0(15):26"/>
					</v:userDefs>
					<rect x="0" y="225.811" width="21.814" height="9.44131" class="st5"/>
				</g>
				<g id="group168-130" transform="translate(16.1777,-9.6815)" v:mID="168" v:groupContext="group">
					<title>Sheet.168</title>
					<g id="shape169-131" v:mID="169" v:groupContext="shape" transform="translate(237.351,230.289) rotate(90)">
						<title>Sheet.169</title>
						<path d="M0 235.25 L4.96 235.25" class="st6"/>
					</g>
					<g id="shape170-134" v:mID="170" v:groupContext="shape" transform="translate(4.19657,461.932) rotate(180)">
						<title>Triangle</title>
						<v:userDefs>
							<v:ud v:nameU="visVersion" v:val="VT0(15):26"/>
						</v:userDefs>
						<path d="M4.2 235.25 L2.1 231.64 L0 235.25 L4.2 235.25 Z" class="st5"/>
					</g>
				</g>
				<g id="group171-136" transform="translate(1.39785,-9.6815)" v:mID="171" v:groupContext="group">
					<title>Sheet.171</title>
					<g id="shape172-137" v:mID="172" v:groupContext="shape" transform="translate(237.351,230.289) rotate(90)">
						<title>Sheet.172</title>
						<path d="M0 235.25 L4.96 235.25" class="st6"/>
					</g>
					<g id="shape173-140" v:mID="173" v:groupContext="shape" transform="translate(4.19657,461.932) rotate(180)">
						<title>Triangle</title>
						<v:userDefs>
							<v:ud v:nameU="visVersion" v:val="VT0(15):26"/>
						</v:userDefs>
						<path d="M4.2 235.25 L2.1 231.64 L0 235.25 L4.2 235.25 Z" class="st5"/>
					</g>
				</g>
			</g>
			<g id="shape174-142" v:mID="174" v:groupContext="shape" transform="translate(0,-10.9528)">
				<title>Rectangle.117</title>
				<desc>...</desc>
				<v:textBlock v:margins="rect(4,4,4,4)"/>
				<v:textRect cx="10.907" cy="230.385" width="21.82" height="9.73585"/>
				<rect x="0" y="225.517" width="21.814" height="9.73585" class="st1"/>
				<text x="6.78" y="233.68" class="st7" v:langID="1033"><v:paragraph v:horizAlign="1"/><v:tabList/>...</text>			</g>
		</g>
		<g id="group175-145" transform="translate(161.841,-94.1321)" v:mID="175" v:groupContext="group">
			<title>Sheet.175</title>
			<g id="group176-146" v:mID="176" v:groupContext="group">
				<title>Sheet.176</title>
				<g id="shape177-147" v:mID="177" v:groupContext="shape">
					<title>Rectangle.73</title>
					<v:userDefs>
						<v:ud v:nameU="visVersion" v:val="VT0(15):26"/>
					</v:userDefs>
					<rect x="0" y="225.811" width="21.814" height="9.44131" class="st5"/>
				</g>
				<g id="group178-149" transform="translate(16.1777,-9.6815)" v:mID="178" v:groupContext="group">
					<title>Sheet.178</title>
					<g id="shape179-150" v:mID="179" v:groupContext="shape" transform="translate(237.351,230.289) rotate(90)">
						<title>Sheet.179</title>
						<path d="M0 235.25 L4.96 235.25" class="st6"/>
					</g>
					<g id="shape180-153" v:mID="180" v:groupContext="shape" transform="translate(4.19657,461.932) rotate(180)">
						<title>Triangle</title>
						<v:userDefs>
							<v:ud v:nameU="visVersion" v:val="VT0(15):26"/>
						</v:userDefs>
						<path d="M4.2 235.25 L2.1 231.64 L0 235.25 L4.2 235.25 Z" class="st5"/>
					</g>
				</g>
				<g id="group181-155" transform="translate(1.39785,-9.6815)" v:mID="181" v:groupContext="group">
					<title>Sheet.181</title>
					<g id="shape182-156" v:mID="182" v:groupContext="shape" transform="translate(237.351,230.289) rotate(90)">
						<title>Sheet.182</title>
						<path d="M0 235.25 L4.96 235.25" class="st6"/>
					</g>
					<g id="shape183-159" v:mID="183" v:groupContext="shape" transform="translate(4.19657,461.932) rotate(180)">
						<title>Triangle</title>
						<v:userDefs>
							<v:ud v:nameU="visVersion" v:val="VT0(15):26"/>
						</v:userDefs>
						<path d="M4.2 235.25 L2.1 231.64 L0 235.25 L4.2 235.25 Z" class="st5"/>
					</g>
				</g>
			</g>
			<g id="shape184-161" v:mID="184" v:groupContext="shape" transform="translate(0,-10.9528)">
				<title>Rectangle.117</title>
				<desc>...</desc>
				<v:textBlock v:margins="rect(4,4,4,4)"/>
				<v:textRect cx="10.907" cy="230.385" width="21.82" height="9.73585"/>
				<rect x="0" y="225.517" width="21.814" height="9.73585" class="st1"/>
				<text x="6.78" y="233.68" class="st7" v:langID="1033"><v:paragraph v:horizAlign="1"/><v:tabList/>...</text>			</g>
		</g>
		<g id="shape185-164" v:mID="185" v:groupContext="shape" transform="translate(182.238,-95.3491)">
			<title>Rectangle.185</title>
			<desc>PU 2</desc>
			<v:textBlock v:margins="rect(4,4,4,4)"/>
			<v:textRect cx="16.969" cy="226.125" width="33.94" height="18.2547"/>
			<rect x="0" y="216.998" width="33.938" height="18.2547" class="st1"/>
			<text x="5.81" y="229.43" class="st2" v:langID="2052"><v:paragraph v:horizAlign="1"/><v:tabList/>PU 2</text>		</g>
		<g id="shape186-167" v:mID="186" v:groupContext="shape" transform="translate(158.438,364.204) rotate(180)">
			<title>Sheet.186</title>
			<path d="M0 235.25 L52.92 235.25" class="st3"/>
		</g>
		<g id="shape187-172" v:mID="187" v:groupContext="shape" transform="translate(39.37,-46.6698)">
			<title>Rectangle.187</title>
			<desc>SU 1</desc>
			<v:textBlock v:margins="rect(4,4,4,4)"/>
			<v:textRect cx="16.6355" cy="226.125" width="33.28" height="18.2547"/>
			<rect x="0" y="216.998" width="33.271" height="18.2547" class="st1"/>
			<text x="5.48" y="229.43" class="st2" v:langID="2052"><v:paragraph v:horizAlign="1"/><v:tabList/>SU 1</text>		</g>
		<g id="group188-175" transform="translate(70.5686,-45.4528)" v:mID="188" v:groupContext="group">
			<title>Sheet.188</title>
			<g id="group189-176" v:mID="189" v:groupContext="group">
				<title>Sheet.189</title>
				<g id="shape190-177" v:mID="190" v:groupContext="shape">
					<title>Rectangle.73</title>
					<v:userDefs>
						<v:ud v:nameU="visVersion" v:val="VT0(15):26"/>
					</v:userDefs>
					<rect x="0" y="225.811" width="21.814" height="9.44131" class="st10"/>
				</g>
				<g id="group191-179" transform="translate(16.1777,-9.6815)" v:mID="191" v:groupContext="group">
					<title>Sheet.191</title>
					<g id="shape192-180" v:mID="192" v:groupContext="shape" transform="translate(237.351,230.289) rotate(90)">
						<title>Sheet.192</title>
						<path d="M0 235.25 L4.96 235.25" class="st6"/>
					</g>
					<g id="shape193-183" v:mID="193" v:groupContext="shape" transform="translate(4.19657,461.932) rotate(180)">
						<title>Triangle</title>
						<v:userDefs>
							<v:ud v:nameU="visVersion" v:val="VT0(15):26"/>
						</v:userDefs>
						<path d="M4.2 235.25 L2.1 231.64 L0 235.25 L4.2 235.25 Z" class="st10"/>
					</g>
				</g>
				<g id="group194-185" transform="translate(1.39785,-9.6815)" v:mID="194" v:groupContext="group">
					<title>Sheet.194</title>
					<g id="shape195-186" v:mID="195" v:groupContext="shape" transform="translate(237.351,230.289) rotate(90)">
						<title>Sheet.195</title>
						<path d="M0 235.25 L4.96 235.25" class="st6"/>
					</g>
					<g id="shape196-189" v:mID="196" v:groupContext="shape" transform="translate(4.19657,461.932) rotate(180)">
						<title>Triangle</title>
						<v:userDefs>
							<v:ud v:nameU="visVersion" v:val="VT0(15):26"/>
						</v:userDefs>
						<path d="M4.2 235.25 L2.1 231.64 L0 235.25 L4.2 235.25 Z" class="st10"/>
					</g>
				</g>
			</g>
			<g id="shape197-191" v:mID="197" v:groupContext="shape" transform="translate(0,-10.9528)">
				<title>Rectangle.117</title>
				<desc>...</desc>
				<v:textBlock v:margins="rect(4,4,4,4)"/>
				<v:textRect cx="10.907" cy="230.385" width="21.82" height="9.73585"/>
				<rect x="0" y="225.517" width="21.814" height="9.73585" class="st1"/>
				<text x="6.78" y="233.68" class="st7" v:langID="1033"><v:paragraph v:horizAlign="1"/><v:tabList/>...</text>			</g>
		</g>
		<g id="group198-194" transform="translate(161.841,-45.4528)" v:mID="198" v:groupContext="group">
			<title>Sheet.198</title>
			<g id="group199-195" v:mID="199" v:groupContext="group">
				<title>Sheet.199</title>
				<g id="shape200-196" v:mID="200" v:groupContext="shape">
					<title>Rectangle.73</title>
					<v:userDefs>
						<v:ud v:nameU="visVersion" v:val="VT0(15):26"/>
					</v:userDefs>
					<rect x="0" y="225.811" width="21.814" height="9.44131" class="st10"/>
				</g>
				<g id="group201-198" transform="translate(16.1777,-9.6815)" v:mID="201" v:groupContext="group">
					<title>Sheet.201</title>
					<g id="shape202-199" v:mID="202" v:groupContext="shape" transform="translate(237.351,230.289) rotate(90)">
						<title>Sheet.202</title>
						<path d="M0 235.25 L4.96 235.25" class="st6"/>
					</g>
					<g id="shape203-202" v:mID="203" v:groupContext="shape" transform="translate(4.19657,461.932) rotate(180)">
						<title>Triangle</title>
						<v:userDefs>
							<v:ud v:nameU="visVersion" v:val="VT0(15):26"/>
						</v:userDefs>
						<path d="M4.2 235.25 L2.1 231.64 L0 235.25 L4.2 235.25 Z" class="st10"/>
					</g>
				</g>
				<g id="group204-204" transform="translate(1.39785,-9.6815)" v:mID="204" v:groupContext="group">
					<title>Sheet.204</title>
					<g id="shape205-205" v:mID="205" v:groupContext="shape" transform="translate(237.351,230.289) rotate(90)">
						<title>Sheet.205</title>
						<path d="M0 235.25 L4.96 235.25" class="st6"/>
					</g>
					<g id="shape206-208" v:mID="206" v:groupContext="shape" transform="translate(4.19657,461.932) rotate(180)">
						<title>Triangle</title>
						<v:userDefs>
							<v:ud v:nameU="visVersion" v:val="VT0(15):26"/>
						</v:userDefs>
						<path d="M4.2 235.25 L2.1 231.64 L0 235.25 L4.2 235.25 Z" class="st10"/>
					</g>
				</g>
			</g>
			<g id="shape207-210" v:mID="207" v:groupContext="shape" transform="translate(0,-10.9528)">
				<title>Rectangle.117</title>
				<desc>...</desc>
				<v:textBlock v:margins="rect(4,4,4,4)"/>
				<v:textRect cx="10.907" cy="230.385" width="21.82" height="9.73585"/>
				<rect x="0" y="225.517" width="21.814" height="9.73585" class="st1"/>
				<text x="6.78" y="233.68" class="st7" v:langID="1033"><v:paragraph v:horizAlign="1"/><v:tabList/>...</text>			</g>
		</g>
		<g id="shape208-213" v:mID="208" v:groupContext="shape" transform="translate(180.93,-46.6698)">
			<title>Rectangle.208</title>
			<desc>SU 2</desc>
			<v:textBlock v:margins="rect(4,4,4,4)"/>
			<v:textRect cx="18.277" cy="226.125" width="36.56" height="18.2547"/>
			<rect x="0" y="216.998" width="36.554" height="18.2547" class="st1"/>
			<text x="7.12" y="229.43" class="st2" v:langID="2052"><v:paragraph v:horizAlign="1"/><v:tabList/>SU 2</text>		</g>
		<g id="shape209-216" v:mID="209" v:groupContext="shape" transform="translate(295.568,320.103) rotate(144.345)">
			<title>Sheet.209</title>
			<path d="M0 235.25 L61.58 235.25" class="st3"/>
		</g>
		<g id="shape210-221" v:mID="210" v:groupContext="shape" transform="translate(154.471,-24.1557)">
			<title>Rectangle.324</title>
			<desc>Idle</desc>
			<v:textBlock v:margins="rect(4,4,4,4)"/>
			<v:textRect cx="18.277" cy="226.125" width="36.56" height="18.2547"/>
			<rect x="0" y="216.998" width="36.554" height="18.2547" class="st1"/>
			<text x="9.73" y="229.43" class="st2" v:langID="1033"><v:paragraph v:horizAlign="1"/><v:tabList/>Idle</text>		</g>
		<g id="shape211-224" v:mID="211" v:groupContext="shape" transform="translate(44.2379,-24.1557)">
			<title>Rectangle.325</title>
			<desc>Overhearing</desc>
			<v:textBlock v:margins="rect(4,4,4,4)"/>
			<v:textRect cx="36.1072" cy="226.125" width="72.22" height="18.2547"/>
			<rect x="0" y="216.998" width="72.2144" height="18.2547" class="st1"/>
			<text x="8.62" y="229.43" class="st2" v:langID="1033"><v:paragraph v:horizAlign="1"/><v:tabList/>Overhearing</text>		</g>
		<g id="shape212-227" v:mID="212" v:groupContext="shape" transform="translate(154.471,-114.821)">
			<title>Rectangle.326</title>
			<desc>Tx</desc>
			<v:textBlock v:margins="rect(4,4,4,4)"/>
			<v:textRect cx="18.277" cy="226.125" width="36.56" height="18.2547"/>
			<rect x="0" y="216.998" width="36.554" height="18.2547" class="st1"/>
			<text x="12.17" y="229.43" class="st2" v:langID="1033"><v:paragraph v:horizAlign="1"/><v:tabList/>Tx</text>		</g>
		<g id="shape213-230" v:mID="213" v:groupContext="shape" transform="translate(64.2466,-114.821)">
			<title>Rectangle.327</title>
			<desc>Rx</desc>
			<v:textBlock v:margins="rect(4,4,4,4)"/>
			<v:textRect cx="18.277" cy="226.125" width="36.56" height="18.2547"/>
			<rect x="0" y="216.998" width="36.554" height="18.2547" class="st1"/>
			<text x="11.86" y="229.43" class="st2" v:langID="1033"><v:paragraph v:horizAlign="1"/><v:tabList/>Rx</text>		</g>
		<g id="group222-233" transform="translate(18.375,-164.25)" v:mID="222" v:groupContext="group">
			<title>Sheet.222</title>
			<g id="shape52-234" v:mID="52" v:groupContext="shape" transform="translate(130.021,-27.8777)">
				<title>Sheet.52</title>
				<desc>CDMA/LTE</desc>
				<v:textBlock v:margins="rect(4,4,4,4)"/>
				<v:textRect cx="78.75" cy="222.878" width="157.5" height="24.75"/>
				<rect x="0" y="210.503" width="157.5" height="24.75" class="st1"/>
				<text x="42.97" y="227.08" class="st11" v:langID="1033"><v:paragraph v:horizAlign="1"/><v:tabList/>CDMA/LTE</text>			</g>
			<g id="shape54-237" v:mID="54" v:groupContext="shape" transform="translate(31.714,-13.6875)">
				<title>Sheet.54</title>
				<path d="M0 235.25 L359.86 235.25" class="st12"/>
			</g>
			<g id="shape55-243" v:mID="55" v:groupContext="shape" transform="translate(35.896,-14.3625)">
				<title>Rectangle.20</title>
				<v:userDefs>
					<v:ud v:nameU="visVersion" v:val="VT0(15):26"/>
				</v:userDefs>
				<rect x="0" y="223.553" width="23.625" height="11.7" class="st14"/>
			</g>
			<g id="shape56-246" v:mID="56" v:groupContext="shape" transform="translate(55.021,450.293) rotate(180)">
				<title>Sheet.56</title>
				<path d="M0 235.25 L7.87 235.25" class="st3"/>
			</g>
			<g id="shape57-251" v:mID="57" v:groupContext="shape" transform="translate(61.771,-14.3625)">
				<title>Rectangle.57</title>
				<v:userDefs>
					<v:ud v:nameU="visVersion" v:val="VT0(15):26"/>
				</v:userDefs>
				<rect x="0" y="223.553" width="23.625" height="11.7" class="st14"/>
			</g>
			<g id="shape58-254" v:mID="58" v:groupContext="shape" transform="translate(81.1773,450.293) rotate(180)">
				<title>Sheet.58</title>
				<path d="M6.96 235.25 L7.32 235.25 L15.19 235.25" class="st15"/>
			</g>
			<g id="shape59-260" v:mID="59" v:groupContext="shape" transform="translate(87.9273,-14.3625)">
				<title>Rectangle.251</title>
				<v:userDefs>
					<v:ud v:nameU="visVersion" v:val="VT0(15):26"/>
				</v:userDefs>
				<rect x="0" y="223.553" width="23.625" height="11.7" class="st14"/>
			</g>
			<g id="shape60-263" v:mID="60" v:groupContext="shape" transform="translate(107.052,450.293) rotate(180)">
				<title>Sheet.60</title>
				<path d="M0 235.25 L7.87 235.25" class="st3"/>
			</g>
			<g id="shape61-268" v:mID="61" v:groupContext="shape" transform="translate(113.802,-14.3625)">
				<title>Rectangle.253</title>
				<v:userDefs>
					<v:ud v:nameU="visVersion" v:val="VT0(15):26"/>
				</v:userDefs>
				<rect x="0" y="223.553" width="23.625" height="11.7" class="st14"/>
			</g>
			<g id="shape62-271" v:mID="62" v:groupContext="shape" transform="translate(132.927,450.293) rotate(180)">
				<title>Sheet.62</title>
				<path d="M6.96 235.25 L7.32 235.25 L15.19 235.25" class="st15"/>
			</g>
			<g id="shape63-276" v:mID="63" v:groupContext="shape" transform="translate(139.396,-14.3625)">
				<title>Rectangle.255</title>
				<v:userDefs>
					<v:ud v:nameU="visVersion" v:val="VT0(15):26"/>
				</v:userDefs>
				<rect x="0" y="223.553" width="23.625" height="11.7" class="st14"/>
			</g>
			<g id="shape64-279" v:mID="64" v:groupContext="shape" transform="translate(158.521,450.293) rotate(180)">
				<title>Sheet.64</title>
				<path d="M0 235.25 L7.87 235.25" class="st3"/>
			</g>
			<g id="shape65-284" v:mID="65" v:groupContext="shape" transform="translate(165.271,-14.3625)">
				<title>Rectangle.257</title>
				<v:userDefs>
					<v:ud v:nameU="visVersion" v:val="VT0(15):26"/>
				</v:userDefs>
				<rect x="0" y="223.553" width="23.625" height="11.7" class="st14"/>
			</g>
			<g id="shape66-287" v:mID="66" v:groupContext="shape" transform="translate(184.396,450.293) rotate(180)">
				<title>Sheet.66</title>
				<path d="M6.96 235.25 L7.32 235.25 L15.19 235.25" class="st15"/>
			</g>
			<g id="shape67-292" v:mID="67" v:groupContext="shape" transform="translate(224.052,-14.3625)">
				<title>Rectangle.261</title>
				<v:userDefs>
					<v:ud v:nameU="visVersion" v:val="VT0(15):26"/>
				</v:userDefs>
				<rect x="0" y="223.553" width="23.625" height="11.7" class="st14"/>
			</g>
			<g id="shape68-295" v:mID="68" v:groupContext="shape" transform="translate(243.177,450.293) rotate(180)">
				<title>Sheet.68</title>
				<path d="M6.96 235.25 L7.32 235.25 L15.19 235.25" class="st15"/>
			</g>
			<g id="shape69-300" v:mID="69" v:groupContext="shape" transform="translate(250.068,-14.3625)">
				<title>Rectangle.263</title>
				<v:userDefs>
					<v:ud v:nameU="visVersion" v:val="VT0(15):26"/>
				</v:userDefs>
				<rect x="0" y="223.553" width="23.625" height="11.7" class="st14"/>
			</g>
			<g id="shape70-303" v:mID="70" v:groupContext="shape" transform="translate(269.193,450.293) rotate(180)">
				<title>Sheet.70</title>
				<path d="M0 235.25 L7.87 235.25" class="st3"/>
			</g>
			<g id="shape71-308" v:mID="71" v:groupContext="shape" transform="translate(275.943,-14.3625)">
				<title>Rectangle.265</title>
				<v:userDefs>
					<v:ud v:nameU="visVersion" v:val="VT0(15):26"/>
				</v:userDefs>
				<rect x="0" y="223.553" width="23.625" height="11.7" class="st14"/>
			</g>
			<g id="shape72-311" v:mID="72" v:groupContext="shape" transform="translate(295.068,450.293) rotate(180)">
				<title>Sheet.72</title>
				<path d="M6.96 235.25 L7.32 235.25 L15.19 235.25" class="st15"/>
			</g>
			<g id="shape73-316" v:mID="73" v:groupContext="shape" transform="translate(302.099,-14.3625)">
				<title>Rectangle.267</title>
				<v:userDefs>
					<v:ud v:nameU="visVersion" v:val="VT0(15):26"/>
				</v:userDefs>
				<rect x="0" y="223.553" width="23.625" height="11.7" class="st14"/>
			</g>
			<g id="shape74-319" v:mID="74" v:groupContext="shape" transform="translate(321.224,450.293) rotate(180)">
				<title>Sheet.74</title>
				<path d="M0 235.25 L7.87 235.25" class="st3"/>
			</g>
			<g id="shape75-324" v:mID="75" v:groupContext="shape" transform="translate(327.974,-14.3625)">
				<title>Rectangle.269</title>
				<v:userDefs>
					<v:ud v:nameU="visVersion" v:val="VT0(15):26"/>
				</v:userDefs>
				<rect x="0" y="223.553" width="23.625" height="11.7" class="st14"/>
			</g>
			<g id="shape76-327" v:mID="76" v:groupContext="shape" transform="translate(347.099,450.293) rotate(180)">
				<title>Sheet.76</title>
				<path d="M6.96 235.25 L7.32 235.25 L15.19 235.25" class="st15"/>
			</g>
			<g id="shape77-332" v:mID="77" v:groupContext="shape" transform="translate(353.568,-14.3625)">
				<title>Rectangle.271</title>
				<v:userDefs>
					<v:ud v:nameU="visVersion" v:val="VT0(15):26"/>
				</v:userDefs>
				<rect x="0" y="223.553" width="23.625" height="11.7" class="st14"/>
			</g>
			<g id="shape78-335" v:mID="78" v:groupContext="shape" transform="translate(372.693,450.293) rotate(180)">
				<title>Sheet.78</title>
				<path d="M0 235.25 L7.87 235.25" class="st3"/>
			</g>
			<g id="shape79-340" v:mID="79" v:groupContext="shape" transform="translate(366.646,0)">
				<title>Sheet.79</title>
				<desc>time</desc>
				<v:textBlock v:margins="rect(2,2,2,2)"/>
				<v:textRect cx="16.875" cy="229.253" width="33.76" height="12"/>
				<rect x="0" y="223.253" width="33.75" height="12" class="st16"/>
				<text x="6.21" y="232.85" class="st17" v:langID="1033"><v:paragraph v:horizAlign="1"/><v:tabList/>time</text>			</g>
			<g id="shape106-343" v:mID="106" v:groupContext="shape" transform="translate(197.896,-20.25)">
				<title>Sheet.106</title>
				<desc>...</desc>
				<v:textBlock v:margins="rect(2,2,2,2)"/>
				<v:textRect cx="9" cy="229.253" width="18.01" height="12"/>
				<rect x="0" y="223.253" width="18" height="12" class="st16"/>
				<text x="2" y="234.65" class="st18" v:langID="1033"><v:paragraph/><v:tabList/>...</text>			</g>
			<g id="shape214-346" v:mID="214" v:groupContext="shape" transform="translate(389.802,-11.0851)">
				<title>Rectangle.214</title>
				<desc>PU 2</desc>
				<v:textBlock v:margins="rect(4,4,4,4)"/>
				<v:textRect cx="16.969" cy="226.125" width="33.94" height="18.2547"/>
				<rect x="0" y="216.998" width="33.938" height="18.2547" class="st1"/>
				<text x="5.81" y="229.43" class="st2" v:langID="2052"><v:paragraph v:horizAlign="1"/><v:tabList/>PU 2</text>			</g>
			<g id="shape215-349" v:mID="215" v:groupContext="shape" transform="translate(-7.99361E-15,-11.0851)">
				<title>Rectangle.215</title>
				<desc>PU 1</desc>
				<v:textBlock v:margins="rect(4,4,4,4)"/>
				<v:textRect cx="16.6355" cy="226.125" width="33.28" height="18.2547"/>
				<rect x="0" y="216.998" width="33.271" height="18.2547" class="st1"/>
				<text x="5.48" y="229.43" class="st2" v:langID="2052"><v:paragraph v:horizAlign="1"/><v:tabList/>PU 1</text>			</g>
		</g>
		<g id="group223-352" transform="translate(18.745,-129.562)" v:mID="223" v:groupContext="group">
			<title>Sheet.223</title>
			<g id="shape53-353" v:mID="53" v:groupContext="shape" transform="translate(128.25,-22.125)">
				<title>Sheet.53</title>
				<desc>WiFi</desc>
				<v:textBlock v:margins="rect(4,4,4,4)"/>
				<v:textRect cx="78.75" cy="222.878" width="157.5" height="24.75"/>
				<rect x="0" y="210.503" width="157.5" height="24.75" class="st1"/>
				<text x="64.36" y="227.08" class="st11" v:langID="1033"><v:paragraph v:horizAlign="1"/><v:tabList/>WiFi  </text>			</g>
			<g id="shape86-356" v:mID="86" v:groupContext="shape" transform="translate(31.8179,-13.3125)">
				<title>Sheet.86</title>
				<path d="M0 235.25 L359.86 235.25" class="st12"/>
			</g>
			<g id="shape87-361" v:mID="87" v:groupContext="shape" transform="translate(36,-13.9875)">
				<title>Rectangle.291</title>
				<v:userDefs>
					<v:ud v:nameU="visVersion" v:val="VT0(15):26"/>
				</v:userDefs>
				<path d="M0 235.25 L23.62 235.25 L23.62 223.55 L0 223.55 L0 235.25 Z" class="st19"/>
			</g>
			<g id="shape88-364" v:mID="88" v:groupContext="shape" transform="translate(61.875,-13.9875)">
				<title>Rectangle.293</title>
				<v:userDefs>
					<v:ud v:nameU="visVersion" v:val="VT0(15):26"/>
				</v:userDefs>
				<path d="M0 235.25 L23.62 235.25 L23.62 223.55 L0 223.55 L0 235.25 Z" class="st19"/>
			</g>
			<g id="shape89-367" v:mID="89" v:groupContext="shape" transform="translate(81.2812,450.668) rotate(180)">
				<title>Sheet.89</title>
				<path d="M6.96 235.25 L7.32 235.25 L15.19 235.25" class="st20"/>
			</g>
			<g id="shape90-373" v:mID="90" v:groupContext="shape" transform="translate(88.0312,-13.9875)">
				<title>Rectangle.295</title>
				<v:userDefs>
					<v:ud v:nameU="visVersion" v:val="VT0(15):26"/>
				</v:userDefs>
				<path d="M0 235.25 L23.62 235.25 L23.62 223.55 L0 223.55 L0 235.25 Z" class="st19"/>
			</g>
			<g id="shape91-376" v:mID="91" v:groupContext="shape" transform="translate(113.906,-13.9875)">
				<title>Rectangle.297</title>
				<v:userDefs>
					<v:ud v:nameU="visVersion" v:val="VT0(15):26"/>
				</v:userDefs>
				<path d="M0 235.25 L23.62 235.25 L23.62 223.55 L0 223.55 L0 235.25 Z" class="st19"/>
			</g>
			<g id="shape92-379" v:mID="92" v:groupContext="shape" transform="translate(133.031,450.668) rotate(180)">
				<title>Sheet.92</title>
				<path d="M6.96 235.25 L7.32 235.25 L15.19 235.25" class="st20"/>
			</g>
			<g id="shape93-384" v:mID="93" v:groupContext="shape" transform="translate(139.5,-13.9875)">
				<title>Rectangle.299</title>
				<v:userDefs>
					<v:ud v:nameU="visVersion" v:val="VT0(15):26"/>
				</v:userDefs>
				<path d="M0 235.25 L23.62 235.25 L23.62 223.55 L0 223.55 L0 235.25 Z" class="st19"/>
			</g>
			<g id="shape94-387" v:mID="94" v:groupContext="shape" transform="translate(165.375,-13.9875)">
				<title>Rectangle.301</title>
				<v:userDefs>
					<v:ud v:nameU="visVersion" v:val="VT0(15):26"/>
				</v:userDefs>
				<path d="M0 235.25 L23.62 235.25 L23.62 223.55 L0 223.55 L0 235.25 Z" class="st19"/>
			</g>
			<g id="shape95-390" v:mID="95" v:groupContext="shape" transform="translate(184.5,450.668) rotate(180)">
				<title>Sheet.95</title>
				<path d="M6.96 235.25 L7.32 235.25 L15.19 235.25" class="st20"/>
			</g>
			<g id="shape96-395" v:mID="96" v:groupContext="shape" transform="translate(224.156,-13.9875)">
				<title>Rectangle.305</title>
				<v:userDefs>
					<v:ud v:nameU="visVersion" v:val="VT0(15):26"/>
				</v:userDefs>
				<path d="M0 235.25 L23.62 235.25 L23.62 223.55 L0 223.55 L0 235.25 Z" class="st19"/>
			</g>
			<g id="shape97-398" v:mID="97" v:groupContext="shape" transform="translate(250.172,-13.9875)">
				<title>Rectangle.307</title>
				<v:userDefs>
					<v:ud v:nameU="visVersion" v:val="VT0(15):26"/>
				</v:userDefs>
				<path d="M0 235.25 L23.62 235.25 L23.62 223.55 L0 223.55 L0 235.25 Z" class="st19"/>
			</g>
			<g id="shape98-401" v:mID="98" v:groupContext="shape" transform="translate(269.297,450.668) rotate(180)">
				<title>Sheet.98</title>
				<path d="M0 235.25 L7.87 235.25" class="st8"/>
			</g>
			<g id="shape99-406" v:mID="99" v:groupContext="shape" transform="translate(276.047,-13.9875)">
				<title>Rectangle.309</title>
				<v:userDefs>
					<v:ud v:nameU="visVersion" v:val="VT0(15):26"/>
				</v:userDefs>
				<path d="M0 235.25 L23.62 235.25 L23.62 223.55 L0 223.55 L0 235.25 Z" class="st19"/>
			</g>
			<g id="shape100-409" v:mID="100" v:groupContext="shape" transform="translate(302.203,-13.9875)">
				<title>Rectangle.311</title>
				<v:userDefs>
					<v:ud v:nameU="visVersion" v:val="VT0(15):26"/>
				</v:userDefs>
				<path d="M0 235.25 L23.62 235.25 L23.62 223.55 L0 223.55 L0 235.25 Z" class="st19"/>
			</g>
			<g id="shape101-412" v:mID="101" v:groupContext="shape" transform="translate(321.328,450.668) rotate(180)">
				<title>Sheet.101</title>
				<path d="M0 235.25 L7.87 235.25" class="st8"/>
			</g>
			<g id="shape102-417" v:mID="102" v:groupContext="shape" transform="translate(328.078,-13.9875)">
				<title>Rectangle.313</title>
				<v:userDefs>
					<v:ud v:nameU="visVersion" v:val="VT0(15):26"/>
				</v:userDefs>
				<path d="M0 235.25 L23.62 235.25 L23.62 223.55 L0 223.55 L0 235.25 Z" class="st19"/>
			</g>
			<g id="shape103-420" v:mID="103" v:groupContext="shape" transform="translate(353.672,-13.9875)">
				<title>Rectangle.315</title>
				<v:userDefs>
					<v:ud v:nameU="visVersion" v:val="VT0(15):26"/>
				</v:userDefs>
				<path d="M0 235.25 L23.62 235.25 L23.62 223.55 L0 223.55 L0 235.25 Z" class="st19"/>
			</g>
			<g id="shape104-423" v:mID="104" v:groupContext="shape" transform="translate(372.797,450.668) rotate(180)">
				<title>Sheet.104</title>
				<path d="M0 235.25 L7.87 235.25" class="st8"/>
			</g>
			<g id="shape105-428" v:mID="105" v:groupContext="shape" transform="translate(364.5,0)">
				<title>Sheet.105</title>
				<desc>time</desc>
				<v:textBlock v:margins="rect(2,2,2,2)"/>
				<v:textRect cx="16.875" cy="229.253" width="33.76" height="12"/>
				<rect x="0" y="223.253" width="33.75" height="12" class="st16"/>
				<text x="6.21" y="232.85" class="st17" v:langID="1033"><v:paragraph v:horizAlign="1"/><v:tabList/>time</text>			</g>
			<g id="shape107-431" v:mID="107" v:groupContext="shape" transform="translate(198,-16.6875)">
				<title>Sheet.107</title>
				<desc>...</desc>
				<v:textBlock v:margins="rect(2,2,2,2)"/>
				<v:textRect cx="9" cy="229.253" width="18.01" height="12"/>
				<rect x="0" y="223.253" width="18" height="12" class="st16"/>
				<text x="2" y="234.65" class="st21" v:langID="1033"><v:paragraph/><v:tabList/>...</text>			</g>
			<g id="shape217-434" v:mID="217" v:groupContext="shape" transform="translate(5.9952E-15,-10.7101)">
				<title>Rectangle.217</title>
				<desc>SU 1</desc>
				<v:textBlock v:margins="rect(4,4,4,4)"/>
				<v:textRect cx="16.6355" cy="226.125" width="33.28" height="18.2547"/>
				<rect x="0" y="216.998" width="33.271" height="18.2547" class="st1"/>
				<text x="5.48" y="229.43" class="st2" v:langID="2052"><v:paragraph v:horizAlign="1"/><v:tabList/>SU 1</text>			</g>
			<g id="shape218-437" v:mID="218" v:groupContext="shape" transform="translate(388.973,-11.8726)">
				<title>Rectangle.218</title>
				<desc>SU 2</desc>
				<v:textBlock v:margins="rect(4,4,4,4)"/>
				<v:textRect cx="18.277" cy="226.125" width="36.56" height="18.2547"/>
				<rect x="0" y="216.998" width="36.554" height="18.2547" class="st1"/>
				<text x="7.12" y="229.43" class="st2" v:langID="2052"><v:paragraph v:horizAlign="1"/><v:tabList/>SU 2</text>			</g>
		</g>
	</g>
</svg>
